<svg version="1.1" id="Layer_1" xmlns="http://www.w3.org/2000/svg" xmlns:xlink="http://www.w3.org/1999/xlink" x="0px" y="0px"
	 width="100%" viewBox="0 0 439 568" enable-background="new 0 0 439 568" xml:space="preserve">
<path fill="#000000" opacity="1.000000" stroke="none" 
	d="
M282.000000,569.000000 
	C188.000015,569.000000 94.500046,569.000000 1.000050,569.000000 
	C1.000033,379.666748 1.000033,190.333466 1.000017,1.000152 
	C147.333237,1.000101 293.666473,1.000101 439.999756,1.000051 
	C439.999847,190.333191 439.999847,379.666382 439.999939,568.999756 
	C387.500000,569.000000 335.000000,569.000000 282.000000,569.000000 
M181.947815,287.329590 
	C181.897720,286.868805 181.847626,286.407990 181.942947,285.026642 
	C182.292572,274.050293 182.607681,263.072601 183.034882,252.099289 
	C183.089096,250.706711 183.730225,249.337006 184.818787,247.839371 
	C188.978775,245.970428 192.991714,243.600861 197.326630,242.327377 
	C209.794067,238.664780 222.334808,231.163528 234.862228,242.767838 
	C237.331665,245.055328 241.254791,245.813446 244.557053,247.154938 
	C258.064087,252.641937 271.922241,252.962433 286.725311,250.352692 
	C287.094208,261.898804 287.463074,273.444946 287.217468,285.435211 
	C284.886078,293.012115 284.236420,300.714935 285.419952,308.569946 
	C285.428284,308.625336 284.569336,308.811401 284.022095,308.022125 
	C282.761993,303.002533 287.093323,296.317108 279.666199,292.775757 
	C278.388092,296.292206 277.240021,299.450897 276.028046,302.785431 
	C273.244629,299.607910 272.047974,301.618439 271.002045,303.797791 
	C270.443115,304.962433 270.091034,306.226440 269.645599,307.445587 
	C264.240967,305.026489 266.194977,310.689514 264.882812,311.810303 
	C263.818024,311.114563 262.965057,310.227875 261.991791,310.066467 
	C261.535858,309.990875 260.433746,311.259827 260.333435,312.013733 
	C259.767822,316.264526 259.417664,320.543945 258.343750,325.139618 
	C258.226562,332.750519 258.041534,340.361359 258.038696,347.972321 
	C258.037964,349.937347 258.609344,351.902618 259.736450,353.964844 
	C265.043030,355.402344 270.316895,356.980103 275.667450,358.229340 
	C279.393341,359.099243 283.224487,359.518280 287.930359,359.991821 
	C292.142822,359.991821 296.355286,359.991821 300.776489,359.991821 
	C300.891663,358.519318 300.989136,357.273621 301.773499,356.292206 
	C303.184937,356.529327 304.596405,356.766449 306.261902,357.706848 
	C307.495819,357.758484 308.729767,357.810120 310.891724,358.033295 
	C319.602966,357.982330 328.314209,357.931396 337.932404,357.994843 
	C341.586304,357.668030 345.240204,357.341187 349.003204,356.084229 
	C348.629669,350.384583 348.256104,344.684967 347.756866,338.193604 
	C346.181458,322.983368 344.492889,307.783691 343.071747,292.559052 
	C342.172577,282.926056 341.839996,273.240448 340.955688,263.605743 
	C339.432983,247.015381 337.637573,230.450226 336.044312,213.866043 
	C335.542480,208.642776 335.450653,203.379990 334.943115,198.157425 
	C334.060425,189.074036 332.936890,180.014160 332.034271,170.932510 
	C331.273163,163.274414 330.790314,155.586716 329.893433,147.946259 
	C329.766205,146.862762 328.010651,145.146759 326.975769,145.122360 
	C317.825867,144.906509 308.666534,144.924057 299.516479,145.143509 
	C298.616455,145.165085 297.759888,146.998428 296.188599,148.273193 
	C296.030884,149.075409 295.973358,149.913544 295.700470,150.674469 
	C291.139862,163.393433 285.230011,175.803528 286.205566,190.189789 
	C285.046539,190.800385 283.887482,191.410980 282.456879,192.022476 
	C282.456879,192.022476 282.212372,192.140625 281.435730,191.982697 
	C280.912994,192.034698 280.390259,192.086700 279.020203,192.015823 
	C271.433044,191.898438 263.420593,193.260223 256.381683,191.236191 
	C249.711090,189.318039 240.719559,189.853882 237.257355,181.111481 
	C237.136139,180.805374 236.010117,180.928772 235.364471,180.794159 
	C217.585510,177.087936 200.354187,177.906540 184.012238,186.086411 
	C183.887360,183.450272 184.269882,180.664215 183.543488,178.205795 
	C181.267242,170.502167 178.641083,162.898346 175.998016,155.308960 
	C175.235504,153.119461 173.958420,151.109161 172.874771,148.177353 
	C171.795853,147.118591 170.743103,145.174057 169.633865,145.141281 
	C160.808823,144.880493 151.970642,144.884888 143.143677,145.100906 
	C142.077484,145.127014 140.255508,146.810608 140.137741,147.875671 
	C139.236206,156.028946 138.645584,164.217422 138.009064,172.398895 
	C137.613464,177.483627 137.427460,182.586990 136.935913,187.661499 
	C135.674179,200.686737 134.207428,213.692520 133.000443,226.722534 
	C132.438400,232.790039 132.472656,238.912857 131.908371,244.980072 
	C131.092773,253.749222 129.925507,262.485046 129.014130,271.246124 
	C128.538376,275.819580 128.365204,280.423950 127.922821,285.001526 
	C126.649017,298.182373 125.348526,311.360962 123.971687,324.531342 
	C123.466507,329.363708 122.717896,334.170685 121.944511,339.833527 
	C121.580086,345.569641 121.215668,351.305786 121.248940,357.817627 
	C124.486961,357.837463 127.724976,357.857300 131.891937,358.043762 
	C141.270660,357.983612 150.649368,357.923462 160.826065,357.971222 
	C162.249619,357.650818 163.673187,357.330414 165.867523,357.000275 
	C166.893387,357.034149 167.919266,357.067993 168.987350,357.919067 
	C170.508667,358.943512 171.927063,360.576477 173.574539,360.855133 
	C176.303391,361.316742 179.179733,360.906403 182.780914,361.004700 
	C188.112320,359.580017 193.440079,358.141541 198.776337,356.735229 
	C202.534286,355.744843 206.303757,354.798157 210.848831,353.486420 
	C210.893661,345.412506 210.988235,337.338318 210.938324,329.264984 
	C210.929138,327.779999 210.334137,326.298676 210.031540,323.924896 
	C209.545654,320.277618 209.392639,316.544006 208.475876,313.008453 
	C207.637466,309.775055 202.870972,310.348480 201.455505,306.597473 
	C201.075623,305.590820 197.273636,303.999451 195.791168,301.532532 
	C195.422806,300.919556 193.556549,301.206665 192.553604,301.098846 
	C191.729034,299.119965 191.001923,296.956665 189.925568,294.983948 
	C189.450912,294.114014 188.267059,293.631012 187.405167,292.972351 
	C186.874481,293.953125 186.343781,294.933899 185.299149,296.312622 
	C185.124191,296.920074 184.957184,297.530182 184.755783,298.128723 
	C184.742828,298.167267 184.464218,298.116425 184.458542,298.116089 
	C183.992279,296.036896 183.535141,293.998352 183.014618,291.261261 
	C182.637558,290.182678 182.260498,289.104126 181.947815,287.329590 
M301.007233,393.991791 
	C301.007233,401.465912 301.007233,408.940002 301.007233,416.234314 
	C296.050079,418.845032 294.171051,417.122772 292.780731,412.276672 
	C290.231964,403.392639 286.854736,394.746307 283.930786,385.139252 
	C276.071716,384.604553 268.212646,384.069855 259.232635,383.458923 
	C260.083405,387.430603 260.657684,390.111664 261.759064,393.333496 
	C261.164398,396.167206 260.813599,399.080322 259.922394,401.817474 
	C258.256256,406.934753 257.607513,413.419098 254.075333,416.619019 
	C250.063141,420.253784 251.363266,423.079224 251.453430,426.592529 
	C258.070435,426.592529 264.316895,426.592529 270.350433,426.592529 
	C272.230133,421.795258 270.584137,418.383881 265.801208,415.730835 
	C274.686310,414.242035 276.743896,414.613831 278.736511,417.905457 
	C274.017792,417.299988 273.910004,420.190704 273.993469,423.533966 
	C274.092407,427.496948 276.813843,426.932953 279.275757,426.938934 
	C290.273468,426.965668 301.271149,426.987427 312.268860,426.982666 
	C314.439362,426.981720 316.943359,427.195312 316.898254,423.954407 
	C316.864288,421.513336 318.042297,418.486298 313.762909,417.826721 
	C312.662872,417.657166 311.256470,415.317322 311.144226,413.884155 
	C310.981323,411.804504 311.866516,409.642822 312.479584,406.667328 
	C316.276550,412.594635 319.447083,417.898254 323.015747,422.918884 
	C324.229584,424.626587 326.310089,426.447418 328.234161,426.765015 
	C331.918671,427.373230 335.774811,426.941803 339.897797,426.941803 
	C339.897797,417.965210 339.860107,409.505951 339.928192,401.047516 
	C339.942596,399.260590 340.067139,397.376160 340.665955,395.727295 
	C341.058289,394.647034 342.395111,393.909760 343.308899,393.018921 
	C344.233795,394.144867 345.905273,395.236908 345.958160,396.402374 
	C346.229767,402.389008 346.125671,408.395111 346.040497,414.392792 
	C346.028381,415.246765 345.406006,416.093201 345.061310,416.941162 
	C343.813995,420.009216 342.564697,423.076416 340.783112,427.453613 
	C352.907135,426.908234 363.111664,426.526703 373.305847,425.959473 
	C378.772034,425.655334 381.465759,421.715668 382.707825,417.131805 
	C383.878845,412.810333 381.722900,409.189972 378.515533,406.131958 
	C377.820953,405.469727 377.430176,403.501678 377.895599,402.760986 
	C383.159149,394.383484 380.912933,388.346344 370.593597,384.288361 
	C355.997620,384.200775 341.401672,384.099548 326.805603,384.079712 
	C326.268341,384.078979 325.729980,384.874664 325.069244,386.119019 
	C325.179810,387.914459 324.583191,390.608826 325.523987,391.348969 
	C329.490936,394.469818 327.523743,398.397644 327.228455,402.364532 
	C323.258209,396.588684 319.287964,390.812836 314.734100,384.338318 
	C308.993530,384.338318 303.252960,384.338318 297.241699,384.338318 
	C297.241699,387.241547 297.241699,389.973755 297.241699,392.762268 
	C298.637177,392.876770 299.785828,392.970978 301.007233,393.991791 
M128.292953,416.292450 
	C128.161102,416.166229 128.029236,416.039978 127.945381,415.132202 
	C126.904350,412.289520 125.679123,409.496674 124.890991,406.585541 
	C124.413795,404.822937 123.971420,402.607788 124.620155,401.059814 
	C127.498123,394.192719 124.678841,386.296356 117.385803,385.256104 
	C108.238510,383.951355 98.839417,384.350342 89.546288,384.237213 
	C88.734604,384.227325 87.270660,385.835510 87.213539,386.760284 
	C87.099121,388.612518 87.321846,391.896545 88.156952,392.154297 
	C91.936470,393.320740 90.974800,396.094452 91.011597,398.533600 
	C91.086876,403.524902 91.066734,408.518768 90.997032,413.510345 
	C90.981697,414.608826 90.917236,416.424103 90.330788,416.684998 
	C85.075279,419.022919 87.226456,423.001404 87.546417,427.127502 
	C100.181595,425.785858 112.883881,429.627655 123.580009,424.226074 
	C125.704201,425.442596 126.971069,426.741913 128.320175,426.833832 
	C132.461273,427.115906 136.649643,427.140106 140.785629,426.822174 
	C142.212357,426.712494 144.621216,425.385468 144.691208,424.470032 
	C144.847321,422.427765 143.988342,420.223145 143.178741,418.232849 
	C142.847778,417.419250 141.574020,416.989197 139.580780,415.562897 
	C144.999588,415.562897 148.752655,415.562897 152.505737,415.562897 
	C152.555862,415.873169 152.605988,416.183472 152.656113,416.493744 
	C151.169250,417.276154 149.682404,418.058594 148.373489,418.747375 
	C148.373489,421.486206 148.373489,424.067963 148.373489,426.713806 
	C162.625732,426.713806 176.539108,426.713806 191.200989,426.713806 
	C190.828369,423.885529 191.280075,419.741821 190.028244,419.139618 
	C184.952499,416.698090 187.533234,412.982880 187.617371,409.536133 
	C190.135803,412.697266 192.046021,416.181396 194.233109,419.482056 
	C197.162598,423.903168 200.073105,428.409058 206.698837,427.009369 
	C208.935074,426.536987 211.337830,426.852844 214.565125,426.618744 
	C214.674545,415.502777 214.783981,404.386841 215.761337,393.031738 
	C217.144089,393.124237 218.526855,393.216705 220.027206,393.317078 
	C220.027206,394.918243 220.027222,395.912537 220.027206,396.906830 
	C220.027176,402.400116 220.146500,407.897766 219.944244,413.383606 
	C219.892807,414.778503 219.052979,416.312927 218.170532,417.476105 
	C215.794266,420.608429 216.663452,426.741821 219.781845,426.857361 
	C226.372025,427.101501 232.977554,426.931732 239.703537,426.931732 
	C239.703537,423.700928 239.703537,421.105957 239.703537,418.238037 
	C235.608414,418.330505 232.844513,417.227753 234.496246,411.976593 
	C235.953232,411.976593 237.579163,412.007904 239.203354,411.968170 
	C240.989761,411.924500 242.774551,411.815430 245.105942,411.710205 
	C244.865631,408.614258 245.633636,404.361053 244.225647,403.442230 
	C241.641174,401.755676 237.774216,402.034302 234.283997,401.468018 
	C234.283997,398.765747 234.283997,396.043732 234.283997,393.168823 
	C236.547974,393.168823 238.488937,393.168823 240.388107,393.168823 
	C241.730576,399.506531 243.829269,400.340240 252.814713,398.181824 
	C252.814713,393.915405 252.814713,389.609070 252.724838,384.394684 
	C235.201797,384.271820 217.678757,384.127808 200.155594,384.109222 
	C199.507141,384.108551 198.857376,385.331787 198.072876,386.763245 
	C198.288773,388.777069 198.504654,390.790924 198.720047,392.800201 
	C200.083694,392.993713 201.479538,393.191803 202.545593,393.343109 
	C202.545593,396.814606 202.545593,399.815674 202.545593,404.240540 
	C199.534515,399.430023 197.507446,395.735504 195.027557,392.375122 
	C193.071396,389.724396 190.873596,385.926208 188.225632,385.389832 
	C182.833054,384.297516 177.064178,385.062958 171.535583,385.062958 
	C170.804260,390.496613 170.850204,390.451630 173.979019,393.646667 
	C174.589157,394.269714 174.968613,395.389282 174.979340,396.285522 
	C175.060776,403.083527 175.023880,409.882904 175.023880,416.428986 
	C171.762268,417.322144 168.594101,420.084564 167.043488,414.986572 
	C164.021500,405.051178 160.902740,395.145172 157.594101,384.372772 
	C152.111176,384.250244 146.626892,384.003418 141.145996,384.064270 
	C138.841827,384.089844 136.544861,384.765747 134.086929,385.988831 
	C134.641846,388.859131 136.194855,391.973816 135.563095,394.553497 
	C133.726089,402.054535 131.013977,409.341187 128.292953,416.292450 
z"/>
<path fill="#D7252B" opacity="1.000000" stroke="none" 
	d="
M252.814713,385.302704 
	C252.814713,389.609070 252.814713,393.915405 252.814713,398.181824 
	C243.829269,400.340240 241.730576,399.506531 240.388107,393.168823 
	C238.488937,393.168823 236.547974,393.168823 234.283997,393.168823 
	C234.283997,396.043732 234.283997,398.765747 234.283997,401.468018 
	C237.774216,402.034302 241.641174,401.755676 244.225647,403.442230 
	C245.633636,404.361053 244.865631,408.614258 245.105942,411.710205 
	C242.774551,411.815430 240.989761,411.924500 239.203354,411.968170 
	C237.579163,412.007904 235.953232,411.976593 234.496246,411.976593 
	C232.844513,417.227753 235.608414,418.330505 239.703537,418.238037 
	C239.703537,421.105957 239.703537,423.700928 239.703537,426.931732 
	C232.977554,426.931732 226.372025,427.101501 219.781845,426.857361 
	C216.663452,426.741821 215.794266,420.608429 218.170532,417.476105 
	C219.052979,416.312927 219.892807,414.778503 219.944244,413.383606 
	C220.146500,407.897766 220.027176,402.400116 220.027206,396.906830 
	C220.027222,395.912537 220.027206,394.918243 220.027206,393.317078 
	C218.526855,393.216705 217.144089,393.124237 215.090118,393.457642 
	C214.167435,404.858551 213.915955,415.833527 213.664459,426.808502 
	C211.337830,426.852844 208.935074,426.536987 206.698837,427.009369 
	C200.073105,428.409058 197.162598,423.903168 194.233109,419.482056 
	C192.046021,416.181396 190.135803,412.697266 187.617371,409.536133 
	C187.533234,412.982880 184.952499,416.698090 190.028244,419.139618 
	C191.280075,419.741821 190.828369,423.885529 191.200989,426.713806 
	C176.539108,426.713806 162.625732,426.713806 148.373489,426.713806 
	C148.373489,424.067963 148.373489,421.486206 148.373489,418.747375 
	C149.682404,418.058594 151.169250,417.276154 152.656113,416.493744 
	C152.605988,416.183472 152.555862,415.873169 152.505737,415.562897 
	C148.752655,415.562897 144.999588,415.562897 139.580780,415.562897 
	C141.574020,416.989197 142.847778,417.419250 143.178741,418.232849 
	C143.988342,420.223145 144.847321,422.427765 144.691208,424.470032 
	C144.621216,425.385468 142.212357,426.712494 140.785629,426.822174 
	C136.649643,427.140106 132.461273,427.115906 128.320175,426.833832 
	C126.971069,426.741913 125.704201,425.442596 123.580009,424.226074 
	C112.883881,429.627655 100.181595,425.785858 87.546417,427.127502 
	C87.226456,423.001404 85.075279,419.022919 90.330788,416.684998 
	C90.917236,416.424103 90.981697,414.608826 90.997032,413.510345 
	C91.066734,408.518768 91.086876,403.524902 91.011597,398.533600 
	C90.974800,396.094452 91.936470,393.320740 88.156952,392.154297 
	C87.321846,391.896545 87.099121,388.612518 87.213539,386.760284 
	C87.270660,385.835510 88.734604,384.227325 89.546288,384.237213 
	C98.839417,384.350342 108.238510,383.951355 117.385803,385.256104 
	C124.678841,386.296356 127.498123,394.192719 124.620155,401.059814 
	C123.971420,402.607788 124.413795,404.822937 124.890991,406.585541 
	C125.679123,409.496674 126.904350,412.289520 127.664902,415.650452 
	C127.343567,416.607635 127.302719,417.046570 127.261879,417.485535 
	C127.722961,417.227692 128.184036,416.969849 128.645111,416.711975 
	C131.013977,409.341187 133.726089,402.054535 135.563095,394.553497 
	C136.194855,391.973816 134.641846,388.859131 134.617767,385.542480 
	C142.707092,385.139771 150.265564,385.183380 157.824051,385.226990 
	C160.902740,395.145172 164.021500,405.051178 167.043488,414.986572 
	C168.594101,420.084564 171.762268,417.322144 175.023880,416.428986 
	C175.023880,409.882904 175.060776,403.083527 174.979340,396.285522 
	C174.968613,395.389282 174.589157,394.269714 173.979019,393.646667 
	C170.850204,390.451630 170.804260,390.496613 171.535583,385.062958 
	C177.064178,385.062958 182.833054,384.297516 188.225632,385.389832 
	C190.873596,385.926208 193.071396,389.724396 195.027557,392.375122 
	C197.507446,395.735504 199.534515,399.430023 202.545593,404.240540 
	C202.545593,399.815674 202.545593,396.814606 202.545593,393.343109 
	C201.479538,393.191803 200.083694,392.993713 198.720047,392.800201 
	C198.504654,390.790924 198.288773,388.777069 198.537857,386.302673 
	C200.132660,385.582672 201.262894,385.095856 202.392258,385.097900 
	C219.199814,385.128143 236.007248,385.223053 252.814713,385.302704 
M109.682480,417.731995 
	C110.566360,415.751648 112.699806,412.983765 112.057793,411.965088 
	C110.936211,410.185547 108.107773,409.481750 105.236465,407.912903 
	C105.236465,412.243988 105.236465,414.970856 105.236465,417.950684 
	C106.628441,417.950684 107.759300,417.950684 109.682480,417.731995 
M105.026764,399.080261 
	C105.599182,402.611359 107.985138,400.882660 108.807503,399.859344 
	C109.932434,398.459534 110.991371,396.038574 110.489983,394.614746 
	C110.107910,393.529694 107.255104,393.314667 104.989929,392.536926 
	C104.989929,395.251129 104.989929,396.736572 105.026764,399.080261 
z"/>
<path fill="#E1D4D6" opacity="1.000000" stroke="none" 
	d="
M296.883179,147.990845 
	C297.759888,146.998428 298.616455,145.165085 299.516479,145.143509 
	C308.666534,144.924057 317.825867,144.906509 326.975769,145.122360 
	C328.010651,145.146759 329.766205,146.862762 329.893433,147.946259 
	C330.790314,155.586716 331.273163,163.274414 332.034271,170.932510 
	C332.936890,180.014160 334.060425,189.074036 334.943115,198.157425 
	C335.450653,203.379990 335.542480,208.642776 336.044312,213.866043 
	C337.637573,230.450226 339.432983,247.015381 340.955688,263.605743 
	C341.839996,273.240448 342.172577,282.926056 343.071747,292.559052 
	C344.492889,307.783691 346.181458,322.983368 347.358582,338.598755 
	C334.370758,339.007050 321.781219,339.010193 309.172302,338.547455 
	C308.821259,332.777740 308.473389,327.474854 308.160553,322.169922 
	C306.136414,287.847656 304.065887,253.528015 302.121002,219.201248 
	C300.927490,198.136292 299.985260,177.057083 298.776367,155.993088 
	C298.621735,153.298340 297.537018,150.656952 296.883179,147.990845 
M323.369293,164.869308 
	C322.256683,165.255981 321.144073,165.642639 319.287476,165.860809 
	C318.538666,165.958466 317.789886,166.056137 316.582642,165.961533 
	C316.582642,165.961533 316.126373,165.764145 316.001160,165.106339 
	C314.690979,164.272415 313.380768,163.438477 311.527313,162.313278 
	C306.649689,165.502914 305.171814,170.708054 307.725311,175.685959 
	C308.483551,176.788361 309.241760,177.890762 310.111725,179.547394 
	C310.545929,180.099380 310.980164,180.651367 311.974884,181.750809 
	C318.049042,184.930191 321.680054,181.014084 325.068024,177.428162 
	C324.710388,173.448929 324.375366,169.721512 324.033356,165.485672 
	C324.010681,165.317703 323.987976,165.149734 324.126678,164.904495 
	C324.126678,164.904495 324.182892,164.750885 324.182892,164.750885 
	C324.182892,164.750885 324.008179,165.026321 323.369293,164.869308 
M310.818634,229.004868 
	C311.879517,228.987595 312.940369,228.970306 314.108398,229.612808 
	C314.842590,229.880554 315.576782,230.148300 316.310974,230.416061 
	C316.163330,229.254166 316.015717,228.092285 315.606964,226.424286 
	C313.862610,225.395798 312.118225,224.367294 309.318054,222.716278 
	C309.318054,225.940796 309.318054,227.358780 309.158752,229.248352 
	C309.241241,229.535446 309.323700,229.822540 309.406219,230.109650 
	C309.611877,229.750214 309.817566,229.390778 310.818634,229.004868 
M329.259583,194.959579 
	C328.519867,194.926346 327.780151,194.893127 326.801971,194.158936 
	C324.198120,193.438889 321.594269,192.718826 319.419281,191.455795 
	C321.108398,190.365128 322.797546,189.274460 324.923279,187.901871 
	C318.766144,187.901871 312.923920,187.901871 306.922058,187.658890 
	C306.821106,187.627274 306.720123,187.595657 306.619171,187.564026 
	C306.707062,187.742279 306.794952,187.920547 307.397736,188.558411 
	C308.961243,189.685349 310.524719,190.812302 311.554810,192.461868 
	C309.687958,193.252808 307.821075,194.043747 305.451172,194.917709 
	C305.282196,194.935913 305.113190,194.954102 304.463074,195.285294 
	C304.281311,195.818207 304.099548,196.351120 303.715363,197.337601 
	C304.623474,197.836304 305.531586,198.335007 305.947235,199.318100 
	C305.122192,199.865662 304.297180,200.413223 303.194794,201.144836 
	C305.488800,202.240219 307.309570,203.109619 309.223419,204.787079 
	C313.791748,205.214600 318.360107,205.642120 322.675385,206.716049 
	C322.690582,210.871780 324.546631,211.379181 331.885376,209.031540 
	C331.309967,205.152374 328.213348,206.291901 325.870270,205.417099 
	C325.611053,204.915405 325.351837,204.413727 325.065338,203.468201 
	C325.065338,203.468201 325.043457,203.024063 325.585815,202.534393 
	C327.169617,201.565536 330.671753,202.703110 329.996124,198.493011 
	C330.345856,197.974640 330.695618,197.456284 330.962799,196.358398 
	C330.641724,195.906342 330.320648,195.454285 329.259583,194.959579 
M327.378693,239.531372 
	C328.356171,237.686874 329.333679,235.842361 330.485626,233.668655 
	C329.729950,233.223999 328.789764,232.670761 327.379120,231.959274 
	C327.243286,231.867188 327.043915,231.802322 326.989471,231.675339 
	C326.935150,231.548615 326.982971,231.243500 327.059509,231.215164 
	C328.413879,230.713837 329.779541,230.242889 332.652954,229.236343 
	C328.332642,228.084610 325.075226,226.170334 322.617523,226.910736 
	C320.833527,227.448181 318.465759,231.140991 321.002838,234.987686 
	C321.268494,237.006439 321.534119,239.025177 321.828979,241.880524 
	C321.868652,245.238724 322.266296,248.204849 326.390900,246.802383 
	C326.622681,244.301819 326.822968,242.140793 327.378693,239.531372 
M314.346344,213.619049 
	C312.590363,213.818512 310.834351,214.017975 309.097809,214.215225 
	C310.764709,215.688492 312.380554,217.116592 314.256317,218.774445 
	C312.897614,219.614410 312.123657,220.092880 310.895813,220.851959 
	C314.973358,220.851959 318.388123,220.851959 321.268677,220.851959 
	C321.791534,218.850693 322.242004,217.126373 322.690247,215.410751 
	C322.008270,214.794464 321.076904,213.952789 320.428040,212.546509 
	C318.428528,212.375656 316.428986,212.204803 314.429474,212.033951 
	C314.570801,212.396454 314.712128,212.758942 314.346344,213.619049 
M326.047913,265.074738 
	C325.780640,266.089203 325.513397,267.103668 325.175415,268.386688 
	C327.389374,269.276184 332.684998,268.705597 327.380615,275.005188 
	C331.378906,273.882324 335.838379,273.716431 336.312775,272.255981 
	C337.136993,269.718872 336.436066,264.915314 334.643860,263.769653 
	C332.627075,262.480469 328.695160,264.187286 326.047913,265.074738 
M314.049500,245.297333 
	C315.137695,243.178772 316.225891,241.060211 317.281769,239.004562 
	C316.845428,237.861588 316.498108,236.134232 315.581451,234.797180 
	C314.780121,233.628357 313.338287,232.898651 312.179413,231.974960 
	C311.476440,233.042282 310.182587,234.108658 310.180908,235.177078 
	C310.175751,238.436066 310.536682,241.719223 311.106567,244.930618 
	C311.194092,245.424057 313.136047,245.588409 314.049500,245.297333 
M329.563232,290.794128 
	C329.229767,291.639038 328.896301,292.483948 328.547028,293.368927 
	C330.533447,293.943695 332.388031,294.181580 333.945129,294.991394 
	C337.485840,296.832947 338.589661,294.854523 338.724213,291.961792 
	C338.779755,290.767426 337.558441,288.433716 337.063934,288.472687 
	C334.293945,288.690826 331.568542,289.475586 328.827942,290.066833 
	C328.972839,290.149200 329.117706,290.231567 329.563232,290.794128 
M315.690826,273.865448 
	C316.062836,270.410950 316.434845,266.956451 316.806854,263.501953 
	C316.371582,263.151764 315.936279,262.801575 315.501007,262.451355 
	C314.060669,263.420685 311.329071,264.516998 311.409668,265.336792 
	C311.713715,268.429077 309.445801,272.966858 315.690826,273.865448 
M318.707184,292.917786 
	C319.269318,287.916016 315.947632,288.350708 312.013031,288.299072 
	C312.576904,291.005310 313.048615,293.269348 313.520325,295.533417 
	C315.106201,294.863037 316.692078,294.192657 318.707184,292.917786 
M326.915710,256.110321 
	C322.696594,256.110321 318.477509,256.110321 314.258392,256.110321 
	C314.294800,256.694794 314.331207,257.279297 314.367645,257.863770 
	C319.345123,257.863770 324.322601,257.863770 329.300079,257.863770 
	C329.330719,257.499512 329.361389,257.135284 329.392059,256.771027 
	C328.844879,256.560425 328.297699,256.349823 326.915710,256.110321 
M328.570007,331.886749 
	C329.072113,331.593719 329.574188,331.300690 331.217224,330.341797 
	C325.722717,330.341797 321.531494,330.341797 317.340271,330.341797 
	C317.320496,330.565491 317.300751,330.789185 317.280975,331.012878 
	C320.785217,331.331818 324.289459,331.650757 328.570007,331.886749 
M336.013245,311.480743 
	C335.930145,310.108551 335.847015,308.736359 335.763885,307.364136 
	C335.567657,307.377472 335.371429,307.390778 335.175171,307.404114 
	C334.898071,311.405945 334.620941,315.407745 334.343811,319.409576 
	C335.078094,319.400299 335.812378,319.391022 336.546661,319.381744 
	C336.388092,317.018433 336.229523,314.655090 336.013245,311.480743 
M334.618073,324.237457 
	C335.239716,323.893890 335.861328,323.550354 338.230072,322.241211 
	C331.026337,322.518097 333.942810,317.767609 332.559357,315.350037 
	C332.094788,315.484528 331.630188,315.618988 331.165619,315.753479 
	C332.086700,318.649597 333.007782,321.545746 334.618073,324.237457 
M335.452209,326.488403 
	C335.452209,326.488403 335.518341,326.455902 335.452209,326.488403 
z"/>
<path fill="#E0D4D6" opacity="1.000000" stroke="none" 
	d="
M122.080322,338.989227 
	C122.717896,334.170685 123.466507,329.363708 123.971687,324.531342 
	C125.348526,311.360962 126.649017,298.182373 127.922821,285.001526 
	C128.365204,280.423950 128.538376,275.819580 129.014130,271.246124 
	C129.925507,262.485046 131.092773,253.749222 131.908371,244.980072 
	C132.472656,238.912857 132.438400,232.790039 133.000443,226.722534 
	C134.207428,213.692520 135.674179,200.686737 136.935913,187.661499 
	C137.427460,182.586990 137.613464,177.483627 138.009064,172.398895 
	C138.645584,164.217422 139.236206,156.028946 140.137741,147.875671 
	C140.255508,146.810608 142.077484,145.127014 143.143677,145.100906 
	C151.970642,144.884888 160.808823,144.880493 169.633865,145.141281 
	C170.743103,145.174057 171.795853,147.118591 172.584534,148.857910 
	C170.867462,167.226959 169.181290,184.899429 168.087677,202.608505 
	C167.022400,219.858719 166.728607,237.155228 165.800873,254.415543 
	C164.284882,282.620819 162.529327,310.813202 160.417099,339.005157 
	C147.333023,338.995941 134.706680,338.992584 122.080322,338.989227 
M139.448441,316.796936 
	C139.708694,316.593170 139.900696,316.338043 140.889862,316.026794 
	C145.342087,315.867279 149.794327,315.707764 154.246552,315.548279 
	C154.216187,315.193756 154.185837,314.839203 154.155472,314.484680 
	C151.810608,313.566284 149.465744,312.647888 146.686203,311.559265 
	C144.886230,312.217712 142.439301,313.112823 139.972961,313.217743 
	C140.348541,311.172607 140.724121,309.127502 141.325439,306.913483 
	C141.174454,306.892120 141.023468,306.870789 140.161484,306.874054 
	C138.099213,308.242920 136.036926,309.611755 133.744186,311.088531 
	C133.744186,311.088531 133.746765,311.425934 133.746765,311.425934 
	C133.746765,311.425934 134.022446,311.028473 134.779770,311.049500 
	C136.522507,312.030762 138.265228,313.011993 140.004471,314.653229 
	C139.990906,315.092865 139.977341,315.532471 139.533310,316.197021 
	C139.261444,316.394196 139.070465,316.651459 138.724609,317.078400 
	C138.825470,317.063782 138.926346,317.049164 139.448441,316.796936 
M135.841370,237.649048 
	C135.841370,239.841980 135.841370,242.034912 135.841370,245.537155 
	C139.453308,242.878296 141.731522,241.201233 144.422821,239.220078 
	C142.969421,238.390076 141.764603,237.702042 141.044907,236.499451 
	C142.322189,235.821274 143.599472,235.143097 144.896942,234.454193 
	C144.153732,233.933853 143.516403,233.487640 142.793106,232.454102 
	C144.379181,231.397171 145.965256,230.340240 147.108383,229.578491 
	C146.670074,228.154663 146.136185,226.420319 145.471695,224.261749 
	C136.538040,223.449219 136.538040,223.449219 136.929016,232.738388 
	C136.656570,234.141922 136.384140,235.545471 135.841370,237.649048 
M138.427368,214.439743 
	C138.300690,216.458328 138.174011,218.476929 138.032135,220.737915 
	C140.678970,220.737915 142.617447,220.737915 143.726288,220.737915 
	C144.658539,218.623917 145.448944,216.831573 146.218704,215.086075 
	C145.753723,214.858231 144.873398,214.426834 144.538818,213.486221 
	C147.707230,213.299515 151.054077,209.694519 153.964035,214.744019 
	C153.705963,216.578796 153.447906,218.413559 153.042404,221.296600 
	C157.057907,219.056885 160.120728,217.348557 163.711563,215.345703 
	C162.018600,214.806885 160.543808,214.337494 159.321838,213.229324 
	C157.984772,212.484116 156.724731,211.490097 155.294083,211.047241 
	C152.598267,210.212738 149.804138,209.695908 147.419098,208.564438 
	C147.126511,205.290375 149.586334,206.270691 151.323059,205.948608 
	C154.241364,205.407410 157.125336,204.681122 160.644470,203.866638 
	C161.724579,203.224777 162.804688,202.582901 164.429138,201.617447 
	C164.550308,201.016632 164.671463,200.415802 164.924820,199.286789 
	C165.356857,198.481125 165.788910,197.675476 166.011139,196.207443 
	C164.673309,195.471619 163.335464,194.735794 162.433945,193.578018 
	C160.616928,192.384933 158.799896,191.191849 157.461334,189.403809 
	C159.114639,189.052597 160.767929,188.701385 162.421234,188.350174 
	C162.386459,188.099670 162.351669,187.849152 162.316879,187.598633 
	C156.115433,187.598633 149.913986,187.598633 144.480118,187.598633 
	C145.488892,189.132935 146.419952,190.549072 146.620743,191.989182 
	C145.770752,192.663803 144.920761,193.338440 144.026184,194.491623 
	C144.026184,194.491623 143.987595,194.970688 143.301422,195.033524 
	C142.083099,195.722137 140.864761,196.410736 139.892426,196.960312 
	C140.788620,198.341324 141.355713,199.215195 141.875198,200.433670 
	C141.875198,200.433670 141.808426,200.776855 141.226532,200.813217 
	C139.489914,203.148056 142.246155,203.030640 142.842102,204.706192 
	C141.476425,205.849747 140.110764,206.993317 137.626343,209.073685 
	C140.487427,209.073685 141.706665,209.073685 142.785828,209.732773 
	C141.497925,211.080826 140.210022,212.428879 138.427368,214.439743 
M148.130264,163.941254 
	C143.175735,163.528564 143.921661,166.986343 144.186279,170.643066 
	C144.338074,173.004944 144.489868,175.366821 144.641663,177.728699 
	C144.537170,178.743576 145.649658,179.486435 146.565033,180.422134 
	C150.954834,184.909286 155.077438,184.750229 160.962311,179.790314 
	C162.642746,178.374039 164.391418,166.768188 162.745010,165.618378 
	C161.586761,164.809479 159.501129,164.992249 157.906784,165.236404 
	C156.234177,165.492538 154.653671,166.350204 153.044281,166.254562 
	C151.677017,165.471146 150.309769,164.687744 148.130264,163.941254 
M137.661942,321.057343 
	C137.661942,322.663330 137.661942,324.269318 137.661942,326.855438 
	C135.214325,325.227875 134.094330,324.483124 132.263000,323.265381 
	C131.925171,326.758759 131.648346,329.621429 131.371521,332.484070 
	C134.108032,331.274628 137.177582,330.506958 139.503830,328.753296 
	C143.088989,326.050629 147.459213,323.732300 148.641815,318.913208 
	C148.342468,318.386261 148.043137,317.859314 147.743790,317.332367 
	C144.135544,318.527161 140.527313,319.721954 136.494949,320.982147 
	C136.262375,321.115204 136.029800,321.248260 135.797241,321.381348 
	C136.214279,321.276733 136.631317,321.172119 137.661942,321.057343 
M138.109161,263.324158 
	C131.622849,264.768372 134.653137,269.912415 133.568329,273.859436 
	C136.668274,273.859436 139.245972,273.859436 141.911438,273.859436 
	C141.216949,272.468201 140.608414,271.249146 139.905106,269.840271 
	C141.898407,269.063293 143.513931,268.433563 145.368317,267.710754 
	C144.110245,267.095001 143.192474,266.645813 142.126114,266.123901 
	C143.166641,265.144653 143.867157,264.485413 145.378006,263.063568 
	C142.468231,263.063568 140.681931,263.063568 138.109161,263.324158 
M154.387192,229.456650 
	C153.823242,234.743073 153.259293,240.029495 152.695358,245.315918 
	C153.194397,245.380569 153.693436,245.445236 154.192474,245.509888 
	C158.328903,241.157684 157.992889,235.467728 158.304901,230.029236 
	C158.393600,228.483337 157.731903,226.894379 157.414337,225.325165 
	C156.503738,226.478119 155.593155,227.631073 154.387192,229.456650 
M131.975082,291.640442 
	C134.426682,296.918518 138.317200,292.674591 141.684219,293.183624 
	C140.691071,291.467712 139.552780,289.593292 138.105164,289.312347 
	C136.097473,288.922607 132.896851,286.157623 131.975082,291.640442 
M157.298248,263.254364 
	C155.280319,263.254364 153.262375,263.254364 150.619644,263.254364 
	C151.484833,266.642609 152.146225,269.232697 153.050461,272.773834 
	C155.074982,268.941467 156.472961,266.295105 157.298248,263.254364 
M150.913437,295.307098 
	C151.943741,294.788696 153.337555,294.518738 153.907104,293.685425 
	C154.538315,292.761871 154.923645,291.073792 154.482742,290.177948 
	C154.021301,289.240326 152.508728,288.579712 151.341400,288.328308 
	C150.732010,288.197083 149.225662,289.235138 149.246399,289.694397 
	C149.334259,291.639526 149.842987,293.565613 150.913437,295.307098 
M130.732239,312.484009 
	C130.917435,312.474274 131.102646,312.464539 131.287842,312.454803 
	C131.164627,312.399811 131.041428,312.344788 130.732239,312.484009 
z"/>
<path fill="#D7262B" opacity="1.000000" stroke="none" 
	d="
M283.822937,386.000885 
	C286.854736,394.746307 290.231964,403.392639 292.780731,412.276672 
	C294.171051,417.122772 296.050079,418.845032 301.007233,416.234314 
	C301.007233,408.940002 301.007233,401.465912 300.897247,393.170532 
	C299.902344,390.433685 299.017426,388.518097 298.132507,386.602509 
	C300.056274,386.072174 301.958984,385.204895 303.908264,385.083221 
	C307.697601,384.846649 311.513062,385.028473 315.317719,385.036987 
	C319.287964,390.812836 323.258209,396.588684 327.228455,402.364532 
	C327.523743,398.397644 329.490936,394.469818 325.523987,391.348969 
	C324.583191,390.608826 325.179810,387.914459 325.582458,385.645660 
	C341.097839,385.114960 356.099976,385.057648 371.102142,385.000336 
	C380.912933,388.346344 383.159149,394.383484 377.895599,402.760986 
	C377.430176,403.501678 377.820953,405.469727 378.515533,406.131958 
	C381.722900,409.189972 383.878845,412.810333 382.707825,417.131805 
	C381.465759,421.715668 378.772034,425.655334 373.305847,425.959473 
	C363.111664,426.526703 352.907135,426.908234 340.783112,427.453613 
	C342.564697,423.076416 343.813995,420.009216 345.061310,416.941162 
	C345.406006,416.093201 346.028381,415.246765 346.040497,414.392792 
	C346.125671,408.395111 346.229767,402.389008 345.958160,396.402374 
	C345.905273,395.236908 344.233795,394.144867 343.308899,393.018921 
	C342.395111,393.909760 341.058289,394.647034 340.665955,395.727295 
	C340.067139,397.376160 339.942596,399.260590 339.928192,401.047516 
	C339.860107,409.505951 339.897797,417.965210 339.897797,426.941803 
	C335.774811,426.941803 331.918671,427.373230 328.234161,426.765015 
	C326.310089,426.447418 324.229584,424.626587 323.015747,422.918884 
	C319.447083,417.898254 316.276550,412.594635 312.479584,406.667328 
	C311.866516,409.642822 310.981323,411.804504 311.144226,413.884155 
	C311.256470,415.317322 312.662872,417.657166 313.762909,417.826721 
	C318.042297,418.486298 316.864288,421.513336 316.898254,423.954407 
	C316.943359,427.195312 314.439362,426.981720 312.268860,426.982666 
	C301.271149,426.987427 290.273468,426.965668 279.275757,426.938934 
	C276.813843,426.932953 274.092407,427.496948 273.993469,423.533966 
	C273.910004,420.190704 274.017792,417.299988 278.736511,417.905457 
	C276.743896,414.613831 274.686310,414.242035 265.801208,415.730835 
	C270.584137,418.383881 272.230133,421.795258 270.350433,426.592529 
	C264.316895,426.592529 258.070435,426.592529 251.453430,426.592529 
	C251.363266,423.079224 250.063141,420.253784 254.075333,416.619019 
	C257.607513,413.419098 258.256256,406.934753 259.922394,401.817474 
	C260.813599,399.080322 261.164398,396.167206 261.451477,392.631836 
	C261.804504,389.659637 262.404388,385.443939 263.135254,385.421112 
	C270.018402,385.206116 276.923859,385.706757 283.822937,386.000885 
M367.079651,414.795898 
	C366.573334,412.944061 366.587616,410.533020 365.392792,409.420685 
	C364.468445,408.560089 360.813263,408.762634 360.486145,409.470062 
	C359.360382,411.904877 359.162750,414.768860 358.611481,417.469330 
	C359.092255,417.886444 359.573029,418.303558 360.053802,418.720703 
	C362.331604,417.662048 364.609375,416.603394 367.079651,414.795898 
M363.124603,400.930176 
	C366.138947,399.992310 367.090881,397.792450 365.495605,395.324615 
	C364.611237,393.956451 362.416260,393.435455 360.812042,392.532593 
	C360.361816,393.011749 359.911621,393.490906 359.461395,393.970062 
	C361.701477,395.936462 357.362213,399.786957 363.124603,400.930176 
z"/>
<path fill="#A78B90" opacity="1.000000" stroke="none" 
	d="
M296.535889,148.132019 
	C297.537018,150.656952 298.621735,153.298340 298.776367,155.993088 
	C299.985260,177.057083 300.927490,198.136292 302.121002,219.201248 
	C304.065887,253.528015 306.136414,287.847656 308.160553,322.169922 
	C308.473389,327.474854 308.821259,332.777740 308.932495,338.561279 
	C308.712067,339.041016 308.233765,339.047028 307.756531,339.031342 
	C304.195404,339.021088 301.111511,339.026550 298.020966,338.562714 
	C297.676178,330.844849 296.935852,323.584961 297.138977,316.351593 
	C297.278320,311.391449 295.887726,309.182251 290.903809,309.484985 
	C291.331207,304.166565 292.288208,299.200836 291.839813,294.365448 
	C291.541138,291.144470 289.237976,288.109344 287.831970,284.991058 
	C287.463074,273.444946 287.094208,261.898804 286.552612,249.827194 
	C287.033966,248.138733 288.235260,246.982010 288.248596,245.811737 
	C288.311035,240.341507 288.045898,234.867508 287.897919,228.982758 
	C287.919189,222.704437 287.940369,216.838226 288.085388,210.578415 
	C288.401764,205.385788 288.801270,200.581833 288.687042,195.790131 
	C288.640015,193.818298 287.487183,191.872849 286.837341,189.915390 
	C285.230011,175.803528 291.139862,163.393433 295.700470,150.674469 
	C295.973358,149.913544 296.030884,149.075409 296.535889,148.132019 
z"/>
<path fill="#A78B8F" opacity="1.000000" stroke="none" 
	d="
M160.874817,339.011017 
	C162.529327,310.813202 164.284882,282.620819 165.800873,254.415543 
	C166.728607,237.155228 167.022400,219.858719 168.087677,202.608505 
	C169.181290,184.899429 170.867462,167.226959 172.605789,149.277588 
	C173.958420,151.109161 175.235504,153.119461 175.998016,155.308960 
	C178.641083,162.898346 181.267242,170.502167 183.543488,178.205795 
	C184.269882,180.664215 183.887360,183.450272 183.839050,186.849487 
	C183.180527,189.100662 182.327209,190.576309 182.276337,192.079132 
	C182.097900,197.350021 182.195786,202.630264 182.165909,208.381744 
	C182.131943,215.012512 182.120819,221.168503 182.124664,227.772568 
	C181.964035,233.842438 181.667679,239.465546 181.728638,245.084778 
	C181.739105,246.050537 183.270584,246.999802 184.099442,247.956696 
	C183.730225,249.337006 183.089096,250.706711 183.034882,252.099289 
	C182.607681,263.072601 182.292572,274.050293 181.516388,285.501160 
	C180.370270,286.966644 179.650681,287.957611 178.960388,288.976471 
	C178.989655,289.004395 178.946701,288.936646 178.616699,289.024048 
	C177.844040,290.075592 177.401367,291.039673 176.945801,292.468933 
	C177.295044,297.955658 177.657181,302.977203 178.021759,308.321655 
	C178.055420,309.073151 178.086639,309.501831 177.677246,309.948425 
	C173.091431,309.400726 171.986588,311.238159 171.870712,315.312561 
	C171.645905,323.216125 170.670746,331.098328 169.555496,338.992004 
	C166.662094,339.011810 164.219696,339.028992 161.551453,339.043213 
	C161.325592,339.040253 160.874817,339.011017 160.874817,339.011017 
z"/>
<path fill="#E32629" opacity="1.000000" stroke="none" 
	d="
M184.459106,247.898041 
	C183.270584,246.999802 181.739105,246.050537 181.728638,245.084778 
	C181.667679,239.465546 181.964035,233.842438 182.487457,227.703018 
	C185.091415,226.140121 187.360474,225.121704 189.601562,224.045074 
	C201.126968,218.508179 213.090744,214.645645 226.049713,215.272919 
	C227.966156,215.365677 229.990021,216.872345 231.624603,218.156952 
	C233.338455,219.503830 234.344696,221.905930 236.173706,222.927261 
	C252.505981,232.047424 269.878510,233.449478 287.897827,229.394867 
	C288.045898,234.867508 288.311035,240.341507 288.248596,245.811737 
	C288.235260,246.982010 287.033966,248.138733 286.188354,249.578323 
	C271.922241,252.962433 258.064087,252.641937 244.557053,247.154938 
	C241.254791,245.813446 237.331665,245.055328 234.862228,242.767838 
	C222.334808,231.163528 209.794067,238.664780 197.326630,242.327377 
	C192.991714,243.600861 188.978775,245.970428 184.459106,247.898041 
z"/>
<path fill="#F3EE27" opacity="1.000000" stroke="none" 
	d="
M182.188782,207.906967 
	C182.195786,202.630264 182.097900,197.350021 182.276337,192.079132 
	C182.327209,190.576309 183.180527,189.100662 183.891052,187.293015 
	C200.354187,177.906540 217.585510,177.087936 235.364471,180.794159 
	C236.010117,180.928772 237.136139,180.805374 237.257355,181.111481 
	C240.719559,189.853882 249.711090,189.318039 256.381683,191.236191 
	C263.420593,193.260223 271.433044,191.898438 279.638611,192.277786 
	C280.908813,192.406708 281.560608,192.273666 282.212372,192.140625 
	C282.212372,192.140625 282.456879,192.022476 283.015625,192.042252 
	C284.677734,193.005539 286.720581,193.940811 286.728912,194.893921 
	C286.775940,200.253906 286.333252,205.618195 285.730652,211.167023 
	C280.560791,212.241791 275.677460,214.052689 270.882843,213.842209 
	C257.756927,213.266006 245.245026,209.450073 234.270569,202.325363 
	C229.705246,199.361526 225.280640,198.256638 220.426071,198.393326 
	C214.665161,198.555527 208.763931,198.998093 203.224762,200.460312 
	C196.056992,202.352448 189.186996,205.372528 182.188782,207.906967 
z"/>
<path fill="#8C5C64" opacity="1.000000" stroke="none" 
	d="
M258.994019,324.813629 
	C259.417664,320.543945 259.767822,316.264526 260.333435,312.013733 
	C260.433746,311.259827 261.535858,309.990875 261.991791,310.066467 
	C262.965057,310.227875 263.818024,311.114563 264.882812,311.810303 
	C266.194977,310.689514 264.240967,305.026489 269.645599,307.445587 
	C270.091034,306.226440 270.443115,304.962433 271.002045,303.797791 
	C272.047974,301.618439 273.244629,299.607910 276.028046,302.785431 
	C277.240021,299.450897 278.388092,296.292206 279.666199,292.775757 
	C287.093323,296.317108 282.761993,303.002533 283.855988,308.676697 
	C284.415314,309.886688 285.140717,310.442108 285.912933,311.464172 
	C285.973816,325.897003 285.946381,339.863495 286.046692,353.829010 
	C286.061798,355.934448 286.673096,358.035583 287.008636,360.138702 
	C283.224487,359.518280 279.393341,359.099243 275.667450,358.229340 
	C270.316895,356.980103 265.043030,355.402344 259.359100,353.457275 
	C258.985840,343.571014 258.989929,334.192322 258.994019,324.813629 
z"/>
<path fill="#8D5C65" opacity="1.000000" stroke="none" 
	d="
M185.813080,295.914673 
	C186.343781,294.933899 186.874481,293.953125 187.405182,292.972351 
	C188.267059,293.631012 189.450912,294.114014 189.925568,294.983948 
	C191.001923,296.956665 191.729034,299.119965 192.553604,301.098846 
	C193.556549,301.206665 195.422806,300.919556 195.791168,301.532532 
	C197.273636,303.999451 201.075623,305.590820 201.455505,306.597473 
	C202.870972,310.348480 207.637466,309.775055 208.475876,313.008453 
	C209.392639,316.544006 209.545654,320.277618 209.972946,324.849396 
	C209.965591,335.126587 210.016830,344.479309 210.068085,353.831970 
	C206.303757,354.798157 202.534286,355.744843 198.776337,356.735229 
	C193.440079,358.141541 188.112320,359.580017 182.481339,360.536621 
	C182.435852,357.945404 182.896561,355.823639 182.910736,353.698914 
	C183.008179,339.107574 183.012177,324.515594 183.195953,309.663544 
	C186.375519,308.793640 187.620316,307.056702 187.021683,303.935150 
	C186.512894,301.281982 186.208130,298.589661 185.813080,295.914673 
z"/>
<path fill="#CBC1C4" opacity="1.000000" stroke="none" 
	d="
M160.417099,339.005157 
	C160.874817,339.011017 161.325592,339.040253 161.581818,339.502014 
	C161.607971,345.593231 161.377914,351.222687 160.931213,356.987732 
	C160.485733,357.369995 160.256912,357.616638 160.028091,357.863312 
	C150.649368,357.923462 141.270660,357.983612 131.110153,357.710449 
	C127.169327,357.265411 124.010292,357.153656 120.851242,357.041901 
	C121.215668,351.305786 121.580086,345.569641 122.012421,339.411377 
	C134.706680,338.992584 147.333023,338.995941 160.417099,339.005157 
z"/>
<path fill="#CCC1C5" opacity="1.000000" stroke="none" 
	d="
M308.233765,339.047028 
	C308.233765,339.047028 308.712067,339.041016 308.951874,339.027161 
	C321.781219,339.010193 334.370758,339.007050 347.421417,338.994598 
	C348.256104,344.684967 348.629669,350.384583 348.499695,356.533569 
	C344.339294,357.282104 340.682373,357.581268 337.025452,357.880463 
	C328.314209,357.931396 319.602966,357.982330 310.295410,357.750183 
	C309.463959,357.250732 309.203644,357.070679 308.910645,356.483826 
	C308.679993,350.376160 308.456879,344.711578 308.233765,339.047028 
z"/>
<path fill="#AD9398" opacity="1.000000" stroke="none" 
	d="
M183.046249,309.923828 
	C183.012177,324.515594 183.008179,339.107574 182.910736,353.698914 
	C182.896561,355.823639 182.435852,357.945404 182.087860,360.466003 
	C179.179733,360.906403 176.303391,361.316742 173.574539,360.855133 
	C171.927063,360.576477 170.508667,358.943512 169.045563,357.092987 
	C169.404678,350.507721 169.705582,344.748566 170.006500,338.989380 
	C170.670746,331.098328 171.645905,323.216125 171.870712,315.312561 
	C171.986588,311.238159 173.091431,309.400726 178.083069,309.965363 
	C180.301758,309.950836 181.674011,309.937317 183.046249,309.923828 
z"/>
<path fill="#AE9599" opacity="1.000000" stroke="none" 
	d="
M287.469482,360.065247 
	C286.673096,358.035583 286.061798,355.934448 286.046692,353.829010 
	C285.946381,339.863495 285.973816,325.897003 286.189697,311.208252 
	C287.891693,310.288116 289.363739,310.090607 290.835785,309.893066 
	C295.887726,309.182251 297.278320,311.391449 297.138977,316.351593 
	C296.935852,323.584961 297.676178,330.844849 298.011597,339.003052 
	C298.360474,344.487518 298.618835,349.073151 299.145996,353.627655 
	C299.245911,354.491028 300.412292,355.231018 301.086578,356.027924 
	C300.989136,357.273621 300.891663,358.519318 300.776489,359.991821 
	C296.355286,359.991821 292.142822,359.991821 287.469482,360.065247 
z"/>
<path fill="#957D83" opacity="1.000000" stroke="none" 
	d="
M301.430054,356.160065 
	C300.412292,355.231018 299.245911,354.491028 299.145996,353.627655 
	C298.618835,349.073151 298.360474,344.487518 298.018250,339.472351 
	C301.111511,339.026550 304.195404,339.021088 307.756531,339.031342 
	C308.456879,344.711578 308.679993,350.376160 308.549683,356.543396 
	C307.466797,357.031921 306.737305,357.017761 306.007843,357.003571 
	C304.596405,356.766449 303.184937,356.529327 301.430054,356.160065 
z"/>
<path fill="#8B5E67" opacity="1.000000" stroke="none" 
	d="
M290.903809,309.484985 
	C289.363739,310.090607 287.891693,310.288116 286.142883,310.741577 
	C285.140717,310.442108 284.415314,309.886688 283.902618,309.133881 
	C284.569336,308.811401 285.428284,308.625336 285.419952,308.569946 
	C284.236420,300.714935 284.886078,293.012115 287.524719,285.213135 
	C289.237976,288.109344 291.541138,291.144470 291.839813,294.365448 
	C292.288208,299.200836 291.331207,304.166565 290.903809,309.484985 
z"/>
<path fill="#957D83" opacity="1.000000" stroke="none" 
	d="
M169.555496,338.992004 
	C169.705582,344.748566 169.404678,350.507721 169.024445,356.684387 
	C167.919266,357.067993 166.893387,357.034149 165.084137,356.987946 
	C163.249771,356.934448 162.198822,356.893311 161.147858,356.852142 
	C161.377914,351.222687 161.607971,345.593231 161.807663,339.504974 
	C164.219696,339.028992 166.662094,339.011810 169.555496,338.992004 
z"/>
<path fill="#8D5C65" opacity="1.000000" stroke="none" 
	d="
M178.019318,307.998779 
	C177.657181,302.977203 177.295044,297.955658 177.285583,292.393219 
	C178.074402,290.880463 178.510544,289.908539 178.946701,288.936646 
	C178.946701,288.936646 178.989655,289.004395 179.274719,288.962097 
	C180.334351,288.621735 181.108902,288.323639 181.883453,288.025543 
	C182.260498,289.104126 182.637558,290.182678 182.777283,291.902893 
	C182.824295,295.955719 183.108658,299.366913 183.393005,302.778076 
	C183.884628,302.881378 184.376236,302.984650 184.867844,303.087952 
	C182.585007,304.724884 180.302155,306.361816 178.019318,307.998779 
z"/>
<path fill="#8B5E67" opacity="1.000000" stroke="none" 
	d="
M178.021759,308.321655 
	C180.302155,306.361816 182.585007,304.724884 184.867844,303.087952 
	C184.376236,302.984650 183.884628,302.881378 183.393005,302.778076 
	C183.108658,299.366913 182.824295,295.955719 182.808960,292.252197 
	C183.535141,293.998352 183.992279,296.036896 184.458542,298.116089 
	C184.464218,298.116425 184.742828,298.167267 184.755783,298.128723 
	C184.957184,297.530182 185.124191,296.920074 185.556122,296.113647 
	C186.208130,298.589661 186.512894,301.281982 187.021683,303.935150 
	C187.620316,307.056702 186.375519,308.793640 183.195953,309.663513 
	C181.674011,309.937317 180.301758,309.950836 178.523682,309.947388 
	C178.086639,309.501831 178.055420,309.073151 178.021759,308.321655 
z"/>
<path fill="#BA4E52" opacity="1.000000" stroke="none" 
	d="
M252.769775,384.848694 
	C236.007248,385.223053 219.199814,385.128143 202.392258,385.097900 
	C201.262894,385.095856 200.132660,385.582672 198.605530,385.913391 
	C198.857376,385.331787 199.507141,384.108551 200.155594,384.109222 
	C217.678757,384.127808 235.201797,384.271820 252.769775,384.848694 
z"/>
<path fill="#E0D464" opacity="1.000000" stroke="none" 
	d="
M286.057617,210.981018 
	C286.333252,205.618195 286.775940,200.253906 286.728912,194.893921 
	C286.720581,193.940811 284.677734,193.005539 283.151398,192.041794 
	C283.887482,191.410980 285.046539,190.800385 286.521454,190.052582 
	C287.487183,191.872849 288.640015,193.818298 288.687042,195.790131 
	C288.801270,200.581833 288.401764,205.385788 287.767639,210.616180 
	C286.903198,211.025375 286.480408,211.003204 286.057617,210.981018 
z"/>
<path fill="#BA4E52" opacity="1.000000" stroke="none" 
	d="
M370.847870,384.644348 
	C356.099976,385.057648 341.097839,385.114960 325.643921,385.235779 
	C325.729980,384.874664 326.268341,384.078979 326.805603,384.079712 
	C341.401672,384.099548 355.997620,384.200775 370.847870,384.644348 
z"/>
<path fill="#FFBDBE" opacity="1.000000" stroke="none" 
	d="
M214.114792,426.713623 
	C213.915955,415.833527 214.167435,404.858551 214.656158,393.577209 
	C214.783981,404.386841 214.674545,415.502777 214.114792,426.713623 
z"/>
<path fill="#BA4E52" opacity="1.000000" stroke="none" 
	d="
M283.876831,385.570068 
	C276.923859,385.706757 270.018402,385.206116 263.135254,385.421112 
	C262.404388,385.443939 261.804504,389.659637 261.187927,392.361450 
	C260.657684,390.111664 260.083405,387.430603 259.232635,383.458923 
	C268.212646,384.069855 276.071716,384.604553 283.876831,385.570068 
z"/>
<path fill="#BA4E52" opacity="1.000000" stroke="none" 
	d="
M315.025909,384.687653 
	C311.513062,385.028473 307.697601,384.846649 303.908264,385.083221 
	C301.958984,385.204895 300.056274,386.072174 298.132507,386.602509 
	C299.017426,388.518097 299.902344,390.433685 300.860840,392.707275 
	C299.785828,392.970978 298.637177,392.876770 297.241699,392.762268 
	C297.241699,389.973755 297.241699,387.241547 297.241699,384.338318 
	C303.252960,384.338318 308.993530,384.338318 315.025909,384.687653 
z"/>
<path fill="#CCC1C5" opacity="1.000000" stroke="none" 
	d="
M258.668884,324.976624 
	C258.989929,334.192322 258.985840,343.571014 258.949829,353.408752 
	C258.609344,351.902618 258.037964,349.937347 258.038696,347.972321 
	C258.041534,340.361359 258.226562,332.750519 258.668884,324.976624 
z"/>
<path fill="#C8B2B5" opacity="1.000000" stroke="none" 
	d="
M210.458466,353.659210 
	C210.016830,344.479309 209.965591,335.126587 209.961945,325.294769 
	C210.334137,326.298676 210.929138,327.779999 210.938324,329.264984 
	C210.988235,337.338318 210.893661,345.412506 210.458466,353.659210 
z"/>
<path fill="#BA4E52" opacity="1.000000" stroke="none" 
	d="
M157.709076,384.799866 
	C150.265564,385.183380 142.707092,385.139771 134.696625,385.121094 
	C136.544861,384.765747 138.841827,384.089844 141.145996,384.064270 
	C146.626892,384.003418 152.111176,384.250244 157.709076,384.799866 
z"/>
<path fill="#E4DFE1" opacity="1.000000" stroke="none" 
	d="
M337.478943,357.937653 
	C340.682373,357.581268 344.339294,357.282104 348.445160,356.998657 
	C345.240204,357.341187 341.586304,357.668030 337.478943,357.937653 
z"/>
<path fill="#E4DFE1" opacity="1.000000" stroke="none" 
	d="
M121.050095,357.429749 
	C124.010292,357.153656 127.169327,357.265411 130.645691,357.627167 
	C127.724976,357.857300 124.486961,357.837463 121.050095,357.429749 
z"/>
<path fill="#8B5E67" opacity="1.000000" stroke="none" 
	d="
M181.915634,287.677551 
	C181.108902,288.323639 180.334351,288.621735 179.245453,288.934204 
	C179.650681,287.957611 180.370270,286.966644 181.443695,285.961456 
	C181.847626,286.407990 181.897720,286.868805 181.915634,287.677551 
z"/>
<path fill="#E4DFE1" opacity="1.000000" stroke="none" 
	d="
M160.931213,356.987732 
	C162.198822,356.893311 163.249771,356.934448 164.698730,356.992798 
	C163.673187,357.330414 162.249619,357.650818 160.427078,357.917267 
	C160.256912,357.616638 160.485733,357.369995 160.931213,356.987732 
z"/>
<path fill="#E4DFE1" opacity="1.000000" stroke="none" 
	d="
M306.134888,357.355225 
	C306.737305,357.017761 307.466797,357.031921 308.557251,356.986511 
	C309.203644,357.070679 309.463959,357.250732 309.831421,357.664429 
	C308.729767,357.810120 307.495819,357.758484 306.134888,357.355225 
z"/>
<path fill="#E0D464" opacity="1.000000" stroke="none" 
	d="
M281.824036,192.061646 
	C281.560608,192.273666 280.908813,192.406708 280.062286,192.339218 
	C280.390259,192.086700 280.912994,192.034698 281.824036,192.061646 
z"/>
<path fill="#000000" opacity="1.000000" stroke="none" 
	d="
M109.286316,417.841339 
	C107.759300,417.950684 106.628441,417.950684 105.236465,417.950684 
	C105.236465,414.970856 105.236465,412.243988 105.236465,407.912903 
	C108.107773,409.481750 110.936211,410.185547 112.057793,411.965088 
	C112.699806,412.983765 110.566360,415.751648 109.286316,417.841339 
z"/>
<path fill="#000000" opacity="1.000000" stroke="none" 
	d="
M105.008347,398.651123 
	C104.989929,396.736572 104.989929,395.251129 104.989929,392.536926 
	C107.255104,393.314667 110.107910,393.529694 110.489983,394.614746 
	C110.991371,396.038574 109.932434,398.459534 108.807503,399.859344 
	C107.985138,400.882660 105.599182,402.611359 105.008347,398.651123 
z"/>
<path fill="#000000" opacity="1.000000" stroke="none" 
	d="
M128.469025,416.502197 
	C128.184036,416.969849 127.722961,417.227692 127.261879,417.485535 
	C127.302719,417.046570 127.343567,416.607635 127.640900,416.041199 
	C128.029236,416.039978 128.161102,416.166229 128.469025,416.502197 
z"/>
<path fill="#B6A0A5" opacity="1.000000" stroke="none" 
	d="
M325.822144,264.832764 
	C328.695160,264.187286 332.627075,262.480469 334.643860,263.769653 
	C336.436066,264.915314 337.136993,269.718872 336.312775,272.255981 
	C335.838379,273.716431 331.378906,273.882324 327.380615,275.005188 
	C332.684998,268.705597 327.389374,269.276184 325.175415,268.386688 
	C325.513397,267.103668 325.780640,266.089203 325.822144,264.832764 
z"/>
<path fill="#BDA2A9" opacity="1.000000" stroke="none" 
	d="
M329.630066,198.851303 
	C330.671753,202.703110 327.169617,201.565536 324.844727,202.766296 
	C319.400787,203.332489 314.697937,203.666763 309.778809,204.000229 
	C309.562500,203.999420 309.130371,203.979019 309.130371,203.979019 
	C307.309570,203.109619 305.488800,202.240219 303.194794,201.144836 
	C304.297180,200.413223 305.122192,199.865662 306.616577,199.124756 
	C314.733978,198.904709 322.182007,198.878006 329.630066,198.851303 
z"/>
<path fill="#AD9398" opacity="1.000000" stroke="none" 
	d="
M314.134949,245.601151 
	C313.136047,245.588409 311.194092,245.424057 311.106567,244.930618 
	C310.536682,241.719223 310.175751,238.436066 310.180908,235.177078 
	C310.182587,234.108658 311.476440,233.042282 312.179413,231.974960 
	C313.338287,232.898651 314.780121,233.628357 315.581451,234.797180 
	C316.498108,236.134232 316.845428,237.861588 317.281769,239.004562 
	C316.225891,241.060211 315.137695,243.178772 314.134949,245.601151 
z"/>
<path fill="#B1989F" opacity="1.000000" stroke="none" 
	d="
M320.145538,213.111115 
	C321.076904,213.952789 322.008270,214.794464 322.690247,215.410751 
	C322.242004,217.126373 321.791534,218.850693 321.268677,220.851959 
	C318.388123,220.851959 314.973358,220.851959 310.895813,220.851959 
	C312.123657,220.092880 312.897614,219.614410 314.256317,218.774445 
	C312.380554,217.116592 310.764709,215.688492 309.097809,214.215225 
	C310.834351,214.017975 312.590363,213.818512 315.041046,213.346283 
	C317.205688,213.086044 318.675598,213.098572 320.145538,213.111115 
z"/>
<path fill="#9B767D" opacity="1.000000" stroke="none" 
	d="
M324.040344,165.994080 
	C324.375366,169.721512 324.710388,173.448929 325.068024,177.428162 
	C321.680054,181.014084 318.049042,184.930191 312.120453,181.420731 
	C317.823761,180.602280 318.593536,174.665863 322.360870,172.113495 
	C322.605804,171.947525 322.135895,170.726471 322.001099,169.586853 
	C322.178101,168.108017 322.352448,167.038513 322.778625,165.984467 
	C323.367065,165.997986 323.703705,165.996033 324.040344,165.994080 
z"/>
<path fill="#A07D83" opacity="1.000000" stroke="none" 
	d="
M321.998474,169.996201 
	C322.135895,170.726471 322.605804,171.947525 322.360870,172.113495 
	C318.593536,174.665863 317.823761,180.602280 311.840210,181.147003 
	C310.980164,180.651367 310.545929,180.099380 310.113739,178.962524 
	C310.741241,177.922287 311.366730,177.466934 312.058319,177.317154 
	C312.724701,177.992325 313.318573,178.374344 313.942749,178.697906 
	C313.976898,178.715591 314.431854,178.052795 314.407837,178.031860 
	C313.977051,177.656723 313.502533,177.331848 313.036865,176.672211 
	C313.041016,175.916275 313.045715,175.484329 313.364075,175.042114 
	C314.418793,174.963150 315.159821,174.894440 315.900879,174.825745 
	C315.855225,174.562775 315.809570,174.299805 315.763916,174.036835 
	C314.832733,174.342514 313.901550,174.648178 312.705566,175.060059 
	C311.288849,174.759460 310.136932,174.352646 309.096741,173.745422 
	C309.401855,173.298431 309.643158,173.114685 310.313965,172.988052 
	C313.307617,172.576614 315.937408,172.253723 318.517700,171.700256 
	C319.080231,171.579590 319.466003,170.634644 320.014313,169.985855 
	C320.095459,169.902390 320.257996,169.735687 320.546082,169.795013 
	C321.222260,169.901627 321.610352,169.948914 321.998474,169.996201 
z"/>
<path fill="#AE9599" opacity="1.000000" stroke="none" 
	d="
M329.412903,290.554016 
	C329.117706,290.231567 328.972839,290.149200 328.827942,290.066833 
	C331.568542,289.475586 334.293945,288.690826 337.063934,288.472687 
	C337.558441,288.433716 338.779755,290.767426 338.724213,291.961792 
	C338.589661,294.854523 337.485840,296.832947 333.945129,294.991394 
	C332.388031,294.181580 330.533447,293.943695 328.547028,293.368927 
	C328.896301,292.483948 329.229767,291.639038 329.412903,290.554016 
z"/>
<path fill="#A78B8F" opacity="1.000000" stroke="none" 
	d="
M320.788361,234.392960 
	C318.465759,231.140991 320.833527,227.448181 322.617523,226.910736 
	C325.075226,226.170334 328.332642,228.084610 332.652954,229.236343 
	C329.779541,230.242889 328.413879,230.713837 327.059509,231.215164 
	C326.982971,231.243500 326.935150,231.548615 326.989471,231.675339 
	C327.043915,231.802322 327.243286,231.867188 327.551880,232.414658 
	C325.412537,233.377686 323.100433,233.885315 320.788361,234.392960 
z"/>
<path fill="#AD9398" opacity="1.000000" stroke="none" 
	d="
M315.328674,273.911377 
	C309.445801,272.966858 311.713715,268.429077 311.409668,265.336792 
	C311.329071,264.516998 314.060669,263.420685 315.501007,262.451355 
	C315.936279,262.801575 316.371582,263.151764 316.806854,263.501953 
	C316.434845,266.956451 316.062836,270.410950 315.328674,273.911377 
z"/>
<path fill="#A78B8F" opacity="1.000000" stroke="none" 
	d="
M329.813110,198.672150 
	C322.182007,198.878006 314.733978,198.904709 306.862793,198.882568 
	C305.531586,198.335007 304.623474,197.836304 304.292297,197.129456 
	C313.594604,196.926834 322.319977,196.932373 331.045349,196.937912 
	C330.695618,197.456284 330.345856,197.974640 329.813110,198.672150 
z"/>
<path fill="#C8B2B5" opacity="1.000000" stroke="none" 
	d="
M320.895599,234.690323 
	C323.100433,233.885315 325.412537,233.377686 327.787079,232.493774 
	C328.789764,232.670761 329.729950,233.223999 330.485626,233.668655 
	C329.333679,235.842361 328.356171,237.686874 326.816467,239.755707 
	C324.769409,240.334671 323.284607,240.689301 321.799774,241.043915 
	C321.534119,239.025177 321.268494,237.006439 320.895599,234.690323 
z"/>
<path fill="#D1C4C7" opacity="1.000000" stroke="none" 
	d="
M305.954224,194.834686 
	C307.821075,194.043747 309.687958,193.252808 312.248779,192.220383 
	C314.958649,191.985535 316.974548,191.992157 318.990417,191.998779 
	C321.594269,192.718826 324.198120,193.438889 326.450867,194.553589 
	C319.384552,194.910400 312.669403,194.872543 305.954224,194.834686 
z"/>
<path fill="#AE9599" opacity="1.000000" stroke="none" 
	d="
M309.932343,172.993820 
	C309.643158,173.114685 309.401855,173.298431 308.877930,173.897003 
	C308.331573,174.529099 308.115692,174.809204 307.899811,175.089294 
	C305.171814,170.708054 306.649689,165.502914 311.679382,162.824310 
	C311.198456,166.554825 310.565399,169.774323 309.932343,172.993820 
z"/>
<path fill="#C8B2B5" opacity="1.000000" stroke="none" 
	d="
M319.204834,191.727295 
	C316.974548,191.992157 314.958649,191.985535 312.515503,191.959076 
	C310.524719,190.812302 308.961243,189.685349 307.191772,188.281158 
	C306.985809,188.003922 307.081696,187.901871 307.081696,187.901871 
	C312.923920,187.901871 318.766144,187.901871 324.923279,187.901871 
	C322.797546,189.274460 321.108398,190.365128 319.204834,191.727295 
z"/>
<path fill="#B1989F" opacity="1.000000" stroke="none" 
	d="
M318.492554,293.220032 
	C316.692078,294.192657 315.106201,294.863037 313.520325,295.533417 
	C313.048615,293.269348 312.576904,291.005310 312.013031,288.299072 
	C315.947632,288.350708 319.269318,287.916016 318.492554,293.220032 
z"/>
<path fill="#917075" opacity="1.000000" stroke="none" 
	d="
M310.313965,172.988052 
	C310.565399,169.774323 311.198456,166.554825 311.951050,162.969940 
	C313.380768,163.438477 314.690979,164.272415 316.014709,165.844757 
	C315.611847,169.669617 317.568848,170.097595 319.933167,170.069321 
	C319.466003,170.634644 319.080231,171.579590 318.517700,171.700256 
	C315.937408,172.253723 313.307617,172.576614 310.313965,172.988052 
z"/>
<path fill="#C8B2B5" opacity="1.000000" stroke="none" 
	d="
M325.916199,205.999115 
	C328.213348,206.291901 331.309967,205.152374 331.885376,209.031540 
	C324.546631,211.379181 322.690582,210.871780 323.176422,206.366241 
	C324.423706,206.010666 325.169952,206.004898 325.916199,205.999115 
z"/>
<path fill="#A78B8F" opacity="1.000000" stroke="none" 
	d="
M327.333130,256.124756 
	C328.297699,256.349823 328.844879,256.560425 329.392059,256.771027 
	C329.361389,257.135284 329.330719,257.499512 329.300079,257.863770 
	C324.322601,257.863770 319.345123,257.863770 314.367645,257.863770 
	C314.331207,257.279297 314.294800,256.694794 314.258392,256.110321 
	C318.477509,256.110321 322.696594,256.110321 327.333130,256.124756 
z"/>
<path fill="#B1989F" opacity="1.000000" stroke="none" 
	d="
M325.893250,205.708099 
	C325.169952,206.004898 324.423706,206.010666 323.302948,206.043030 
	C318.360107,205.642120 313.791748,205.214600 309.176880,204.383057 
	C309.130371,203.979019 309.562500,203.999420 310.245605,204.004272 
	C315.650024,203.976761 320.371307,203.944397 325.092621,203.912033 
	C325.351837,204.413727 325.611053,204.915405 325.893250,205.708099 
z"/>
<path fill="#B1989F" opacity="1.000000" stroke="none" 
	d="
M321.814392,241.462219 
	C323.284607,240.689301 324.769409,240.334671 326.638763,239.979889 
	C326.822968,242.140793 326.622681,244.301819 326.390900,246.802383 
	C322.266296,248.204849 321.868652,245.238724 321.814392,241.462219 
z"/>
<path fill="#C8B2B5" opacity="1.000000" stroke="none" 
	d="
M331.004089,196.648163 
	C322.319977,196.932373 313.594604,196.926834 304.393494,196.902664 
	C304.099548,196.351120 304.281311,195.818207 305.005310,195.429504 
	C313.698212,195.383209 321.848907,195.192719 329.999573,195.002213 
	C330.320648,195.454285 330.641724,195.906342 331.004089,196.648163 
z"/>
<path fill="#A78B8F" opacity="1.000000" stroke="none" 
	d="
M314.001251,228.953033 
	C312.940369,228.970306 311.879517,228.987595 310.245789,228.950745 
	C309.672943,228.896622 309.318054,228.776779 309.318054,228.776779 
	C309.318054,227.358780 309.318054,225.940796 309.318054,222.716278 
	C312.118225,224.367294 313.862610,225.395798 315.497437,226.822235 
	C314.925690,227.797791 314.463470,228.375412 314.001251,228.953033 
z"/>
<path fill="#A78B8F" opacity="1.000000" stroke="none" 
	d="
M329.629578,194.980896 
	C321.848907,195.192719 313.698212,195.383209 305.245880,195.273010 
	C305.113190,194.954102 305.282196,194.935913 305.702698,194.876205 
	C312.669403,194.872543 319.384552,194.910400 326.570068,194.904083 
	C327.780151,194.893127 328.519867,194.926346 329.629578,194.980896 
z"/>
<path fill="#CBC1C4" opacity="1.000000" stroke="none" 
	d="
M328.181854,331.928223 
	C324.289459,331.650757 320.785217,331.331818 317.280975,331.012878 
	C317.300751,330.789185 317.320496,330.565491 317.340271,330.341797 
	C321.531494,330.341797 325.722717,330.341797 331.217224,330.341797 
	C329.574188,331.300690 329.072113,331.593719 328.181854,331.928223 
z"/>
<path fill="#D1C4C7" opacity="1.000000" stroke="none" 
	d="
M336.042114,311.886261 
	C336.229523,314.655090 336.388092,317.018433 336.546661,319.381744 
	C335.812378,319.391022 335.078094,319.400299 334.343811,319.409576 
	C334.620941,315.407745 334.898071,311.405945 335.175171,307.404114 
	C335.371429,307.390778 335.567657,307.377472 335.763885,307.364136 
	C335.847015,308.736359 335.930145,310.108551 336.042114,311.886261 
z"/>
<path fill="#D1C4C7" opacity="1.000000" stroke="none" 
	d="
M334.273499,324.339661 
	C333.007782,321.545746 332.086700,318.649597 331.165619,315.753479 
	C331.630188,315.618988 332.094788,315.484528 332.559357,315.350037 
	C333.942810,317.767609 331.026337,322.518097 338.230072,322.241211 
	C335.861328,323.550354 335.239716,323.893890 334.273499,324.339661 
z"/>
<path fill="#917075" opacity="1.000000" stroke="none" 
	d="
M307.812561,175.387634 
	C308.115692,174.809204 308.331573,174.529099 308.766235,174.097412 
	C310.136932,174.352646 311.288849,174.759460 312.724457,175.085587 
	C313.008179,175.004898 313.050415,175.052383 313.050415,175.052383 
	C313.045715,175.484329 313.041016,175.916275 312.775330,176.675476 
	C312.340271,177.005692 312.166260,177.008621 311.992218,177.011566 
	C311.366730,177.466934 310.741241,177.922287 310.057861,178.685410 
	C309.241760,177.890762 308.483551,176.788361 307.812561,175.387634 
z"/>
<path fill="#C8B2B5" opacity="1.000000" stroke="none" 
	d="
M325.078979,203.690125 
	C320.371307,203.944397 315.650024,203.976761 310.461914,204.005081 
	C314.697937,203.666763 319.400787,203.332489 324.573547,203.011139 
	C325.043457,203.024063 325.065338,203.468201 325.078979,203.690125 
z"/>
<path fill="#C8B2B5" opacity="1.000000" stroke="none" 
	d="
M314.054810,229.282928 
	C314.463470,228.375412 314.925690,227.797791 315.627991,227.075287 
	C316.015717,228.092285 316.163330,229.254166 316.310974,230.416061 
	C315.576782,230.148300 314.842590,229.880554 314.054810,229.282928 
z"/>
<path fill="#A07D83" opacity="1.000000" stroke="none" 
	d="
M320.014313,169.985855 
	C317.568848,170.097595 315.611847,169.669617 316.077332,166.173645 
	C316.126373,165.764145 316.582642,165.961533 316.891113,166.370880 
	C318.124756,167.186920 319.049896,167.593628 320.009094,168.291992 
	C320.114746,168.967651 320.186371,169.351669 320.257996,169.735687 
	C320.257996,169.735687 320.095459,169.902390 320.014313,169.985855 
z"/>
<path fill="#957D83" opacity="1.000000" stroke="none" 
	d="
M320.286804,212.828812 
	C318.675598,213.098572 317.205688,213.086044 315.294586,213.097473 
	C314.712128,212.758942 314.570801,212.396454 314.429474,212.033936 
	C316.428986,212.204803 318.428528,212.375656 320.286804,212.828812 
z"/>
<path fill="#A07D83" opacity="1.000000" stroke="none" 
	d="
M324.036865,165.739868 
	C323.703705,165.996033 323.367065,165.997986 322.347961,165.956055 
	C321.093536,165.933502 320.521576,165.954849 319.980530,165.973358 
	C320.011444,165.970505 320.031433,166.029297 320.031433,166.029297 
	C321.144073,165.642639 322.256683,165.255981 323.680939,164.934265 
	C323.992584,164.999207 323.965302,164.981781 323.965302,164.981781 
	C323.987976,165.149734 324.010681,165.317703 324.036865,165.739868 
z"/>
<path fill="#917075" opacity="1.000000" stroke="none" 
	d="
M319.975067,168.000336 
	C319.049896,167.593628 318.124756,167.186920 317.120331,166.467010 
	C317.789886,166.056137 318.538666,165.958466 319.659454,165.945053 
	C320.031433,166.029297 320.011444,165.970505 320.067810,166.306580 
	C320.074463,167.095215 320.024780,167.547760 319.975067,168.000336 
z"/>
<path fill="#C8B2B5" opacity="1.000000" stroke="none" 
	d="
M309.238403,229.012573 
	C309.318054,228.776779 309.672943,228.896622 309.848083,228.963989 
	C309.817566,229.390778 309.611877,229.750214 309.406189,230.109650 
	C309.323700,229.822540 309.241241,229.535446 309.238403,229.012573 
z"/>
<path fill="#C8B2B5" opacity="1.000000" stroke="none" 
	d="
M306.934326,188.051361 
	C306.794952,187.920547 306.707062,187.742279 306.619171,187.564026 
	C306.720123,187.595657 306.821106,187.627274 307.001892,187.780380 
	C307.081696,187.901871 306.985809,188.003922 306.934326,188.051361 
z"/>
<path fill="#A07D83" opacity="1.000000" stroke="none" 
	d="
M324.000366,165.012756 
	C324.008179,165.026321 324.182892,164.750885 324.182892,164.750885 
	C324.182892,164.750885 324.126678,164.904495 324.045990,164.943146 
	C323.965302,164.981781 323.992584,164.999207 324.000366,165.012756 
z"/>
<path fill="#D1C4C7" opacity="1.000000" stroke="none" 
	d="
M335.485291,326.472168 
	C335.518341,326.455902 335.452209,326.488403 335.485291,326.472168 
z"/>
<path fill="#9B767D" opacity="1.000000" stroke="none" 
	d="
M153.032913,166.944977 
	C154.653671,166.350204 156.234177,165.492538 157.906784,165.236404 
	C159.501129,164.992249 161.586761,164.809479 162.745010,165.618378 
	C164.391418,166.768188 162.642746,178.374039 160.962311,179.790314 
	C155.077438,184.750229 150.954834,184.909286 146.565033,180.422134 
	C145.649658,179.486435 144.537170,178.743576 144.641663,177.728699 
	C144.489868,175.366821 144.338074,173.004944 144.509888,170.324615 
	C146.190384,170.006668 147.547287,170.007172 149.272400,170.118561 
	C150.096359,171.356415 150.892517,172.467819 150.944931,173.613251 
	C151.112167,177.267075 152.787491,177.477158 155.575317,176.234665 
	C155.025543,174.217484 154.562424,172.518250 154.394257,170.722412 
	C155.292206,169.876526 155.895233,169.127258 156.968384,167.793808 
	C155.109680,167.910477 154.069016,167.975784 153.006073,167.766968 
	C153.000183,167.310211 153.016556,167.127594 153.032913,166.944977 
M147.565292,172.510818 
	C147.565292,172.510818 147.487640,172.551514 147.565292,172.510818 
z"/>
<path fill="#D1C4C7" opacity="1.000000" stroke="none" 
	d="
M136.919083,320.916748 
	C140.527313,319.721954 144.135544,318.527161 147.743790,317.332367 
	C148.043137,317.859314 148.342468,318.386261 148.641815,318.913208 
	C147.459213,323.732300 143.088989,326.050629 139.503830,328.753296 
	C137.177582,330.506958 134.108032,331.274628 131.371521,332.484070 
	C131.648346,329.621429 131.925171,326.758759 132.263000,323.265381 
	C134.094330,324.483124 135.214325,325.227875 137.661942,326.855438 
	C137.661942,324.269318 137.661942,322.663330 137.323975,321.023743 
	C136.985992,320.990173 136.919083,320.916748 136.919083,320.916748 
z"/>
<path fill="#AD9398" opacity="1.000000" stroke="none" 
	d="
M138.502396,263.193848 
	C140.681931,263.063568 142.468231,263.063568 145.378006,263.063568 
	C143.867157,264.485413 143.166641,265.144653 142.126114,266.123901 
	C143.192474,266.645813 144.110245,267.095001 145.368317,267.710754 
	C143.513931,268.433563 141.898407,269.063293 139.905106,269.840271 
	C140.608414,271.249146 141.216949,272.468201 141.911438,273.859436 
	C139.245972,273.859436 136.668274,273.859436 133.568329,273.859436 
	C134.653137,269.912415 131.622849,264.768372 138.502396,263.193848 
z"/>
<path fill="#B1989F" opacity="1.000000" stroke="none" 
	d="
M154.534882,229.120331 
	C155.593155,227.631073 156.503738,226.478119 157.414337,225.325165 
	C157.731903,226.894379 158.393600,228.483337 158.304901,230.029236 
	C157.992889,235.467728 158.328903,241.157684 154.192474,245.509888 
	C153.693436,245.445236 153.194397,245.380569 152.695358,245.315918 
	C153.259293,240.029495 153.823242,234.743073 154.534882,229.120331 
z"/>
<path fill="#A78B90" opacity="1.000000" stroke="none" 
	d="
M141.922806,200.089081 
	C141.355713,199.215195 140.788620,198.341324 139.892426,196.960312 
	C140.864761,196.410736 142.083099,195.722137 143.855331,195.338440 
	C145.754044,196.093170 147.092438,196.906219 148.444778,196.930130 
	C154.367966,197.034760 160.295181,196.910828 166.220947,196.869812 
	C165.788910,197.675476 165.356857,198.481125 164.411591,199.589264 
	C156.573181,199.957535 149.248001,200.023315 141.922806,200.089081 
z"/>
<path fill="#AD9398" opacity="1.000000" stroke="none" 
	d="
M137.085098,232.030014 
	C136.538040,223.449219 136.538040,223.449219 145.471695,224.261749 
	C146.136185,226.420319 146.670074,228.154663 147.108383,229.578491 
	C145.965256,230.340240 144.379181,231.397171 142.468567,232.725525 
	C140.457718,232.674637 138.771408,232.352325 137.085098,232.030014 
z"/>
<path fill="#B1989F" opacity="1.000000" stroke="none" 
	d="
M163.884796,201.941040 
	C162.804688,202.582901 161.724579,203.224777 159.993225,203.799255 
	C153.886765,203.827606 148.431549,203.923340 142.976334,204.019073 
	C142.246155,203.030640 139.489914,203.148056 142.001663,200.870117 
	C149.812790,201.265015 156.848801,201.603027 163.884796,201.941040 
z"/>
<path fill="#C8B2B5" opacity="1.000000" stroke="none" 
	d="
M142.909210,204.362640 
	C148.431549,203.923340 153.886765,203.827606 159.682861,203.882294 
	C157.125336,204.681122 154.241364,205.407410 151.323059,205.948608 
	C149.586334,206.270691 147.126511,205.290375 146.822449,208.786942 
	C145.125839,209.030869 144.025879,209.052277 142.925903,209.073685 
	C141.706665,209.073685 140.487427,209.073685 137.626343,209.073685 
	C140.110764,206.993317 141.476425,205.849747 142.909210,204.362640 
z"/>
<path fill="#B1989F" opacity="1.000000" stroke="none" 
	d="
M166.116043,196.538635 
	C160.295181,196.910828 154.367966,197.034760 148.444778,196.930130 
	C147.092438,196.906219 145.754044,196.093170 144.198425,195.307007 
	C143.987595,194.970688 144.026184,194.491623 144.509613,194.247528 
	C150.661240,194.002304 156.329437,194.001144 161.997635,193.999985 
	C163.335464,194.735794 164.673309,195.471619 166.116043,196.538635 
z"/>
<path fill="#C8B2B5" opacity="1.000000" stroke="none" 
	d="
M162.215790,193.789001 
	C156.329437,194.001144 150.661240,194.002304 144.531921,194.008270 
	C144.920761,193.338440 145.770752,192.663803 147.331772,191.940216 
	C151.022827,191.260437 154.002853,190.629608 156.982880,189.998779 
	C158.799896,191.191849 160.616928,192.384933 162.215790,193.789001 
z"/>
<path fill="#8B5E67" opacity="1.000000" stroke="none" 
	d="
M153.038605,166.599762 
	C153.016556,167.127594 153.000183,167.310211 153.128265,168.047592 
	C153.548264,169.341232 153.823792,170.080124 154.099335,170.819016 
	C154.562424,172.518250 155.025543,174.217484 155.575317,176.234665 
	C152.787491,177.477158 151.112167,177.267075 150.944931,173.613251 
	C150.892517,172.467819 150.096359,171.356415 149.277802,169.770752 
	C148.924149,167.509491 148.933334,165.706924 148.942505,163.904343 
	C150.309769,164.687744 151.677017,165.471146 153.038605,166.599762 
z"/>
<path fill="#AE9599" opacity="1.000000" stroke="none" 
	d="
M157.222107,189.701294 
	C154.002853,190.629608 151.022827,191.260437 147.696915,191.928223 
	C146.419952,190.549072 145.488892,189.132935 144.480118,187.598633 
	C149.913986,187.598633 156.115433,187.598633 162.316879,187.598633 
	C162.351669,187.849152 162.386459,188.099670 162.421234,188.350174 
	C160.767929,188.701385 159.114639,189.052597 157.222107,189.701294 
z"/>
<path fill="#CBC1C4" opacity="1.000000" stroke="none" 
	d="
M142.855865,209.403229 
	C144.025879,209.052277 145.125839,209.030869 146.638336,209.028229 
	C149.804138,209.695908 152.598267,210.212738 155.294083,211.047241 
	C156.724731,211.490097 157.984772,212.484116 158.771362,213.574036 
	C156.810257,213.938995 155.399658,213.959274 153.989044,213.979553 
	C151.054077,209.694519 147.707230,213.299515 143.843933,213.754059 
	C141.740082,213.940247 140.331116,213.858597 138.922134,213.776947 
	C140.210022,212.428879 141.497925,211.080826 142.855865,209.403229 
z"/>
<path fill="#AE9599" opacity="1.000000" stroke="none" 
	d="
M138.674744,214.108337 
	C140.331116,213.858597 141.740082,213.940247 143.571060,214.008667 
	C144.873398,214.426834 145.753723,214.858231 146.218704,215.086075 
	C145.448944,216.831573 144.658539,218.623917 143.726288,220.737915 
	C142.617447,220.737915 140.678970,220.737915 138.032135,220.737915 
	C138.174011,218.476929 138.300690,216.458328 138.674744,214.108337 
z"/>
<path fill="#B1989F" opacity="1.000000" stroke="none" 
	d="
M140.559784,237.014008 
	C141.764603,237.702042 142.969421,238.390076 144.422821,239.220078 
	C141.731522,241.201233 139.453308,242.878296 135.841370,245.537155 
	C135.841370,242.034912 135.841370,239.841980 136.352814,237.306488 
	C138.096085,236.980637 139.327942,236.997314 140.559784,237.014008 
z"/>
<path fill="#A78B90" opacity="1.000000" stroke="none" 
	d="
M131.951660,291.225403 
	C132.896851,286.157623 136.097473,288.922607 138.105164,289.312347 
	C139.552780,289.593292 140.691071,291.467712 141.684219,293.183624 
	C138.317200,292.674591 134.426682,296.918518 131.951660,291.225403 
z"/>
<path fill="#B6A0A5" opacity="1.000000" stroke="none" 
	d="
M153.976532,214.361786 
	C155.399658,213.959274 156.810257,213.938995 158.644943,213.893417 
	C160.543808,214.337494 162.018600,214.806885 163.711563,215.345703 
	C160.120728,217.348557 157.057907,219.056885 153.042404,221.296600 
	C153.447906,218.413559 153.705963,216.578796 153.976532,214.361786 
z"/>
<path fill="#C8B2B5" opacity="1.000000" stroke="none" 
	d="
M139.992371,314.007904 
	C142.439301,313.112823 144.886230,312.217712 146.686203,311.559265 
	C149.465744,312.647888 151.810608,313.566284 154.155472,314.484680 
	C154.185837,314.839203 154.216187,315.193756 154.246552,315.548279 
	C149.794327,315.707764 145.342087,315.867279 140.443298,316.013000 
	C139.996750,315.999237 139.963776,315.972107 139.963776,315.972107 
	C139.977341,315.532471 139.990906,315.092865 140.002228,314.326599 
	C139.999985,314.000000 139.992371,314.007904 139.992371,314.007904 
z"/>
<path fill="#AD9398" opacity="1.000000" stroke="none" 
	d="
M157.584595,263.451569 
	C156.472961,266.295105 155.074982,268.941467 153.050461,272.773834 
	C152.146225,269.232697 151.484833,266.642609 150.619644,263.254364 
	C153.262375,263.254364 155.280319,263.254364 157.584595,263.451569 
z"/>
<path fill="#B1989F" opacity="1.000000" stroke="none" 
	d="
M150.555664,295.402893 
	C149.842987,293.565613 149.334259,291.639526 149.246399,289.694397 
	C149.225662,289.235138 150.732010,288.197083 151.341400,288.328308 
	C152.508728,288.579712 154.021301,289.240326 154.482742,290.177948 
	C154.923645,291.073792 154.538315,292.761871 153.907104,293.685425 
	C153.337555,294.518738 151.943741,294.788696 150.555664,295.402893 
z"/>
<path fill="#A07D83" opacity="1.000000" stroke="none" 
	d="
M140.802338,236.756729 
	C139.327942,236.997314 138.096085,236.980637 136.487976,236.956482 
	C136.384140,235.545471 136.656570,234.141922 137.007050,232.384201 
	C138.771408,232.352325 140.457718,232.674637 142.511566,233.019196 
	C143.516403,233.487640 144.153732,233.933853 144.896942,234.454193 
	C143.599472,235.143097 142.322189,235.821274 140.802338,236.756729 
z"/>
<path fill="#A07D83" opacity="1.000000" stroke="none" 
	d="
M148.536392,163.922791 
	C148.933334,165.706924 148.924149,167.509491 148.909576,169.659882 
	C147.547287,170.007172 146.190384,170.006668 144.424530,170.003784 
	C143.921661,166.986343 143.175735,163.528564 148.536392,163.922791 
z"/>
<path fill="#C8B2B5" opacity="1.000000" stroke="none" 
	d="
M141.099701,307.082367 
	C140.724121,309.127502 140.348541,311.172607 139.982666,313.612823 
	C139.992371,314.007904 139.999985,314.000000 140.003967,313.996643 
	C138.265228,313.011993 136.522507,312.030762 134.390289,311.025787 
	C134.000824,311.002075 133.974655,310.980621 133.974640,310.980591 
	C136.036926,309.611755 138.099213,308.242920 140.571793,306.921906 
	C140.982101,306.969757 141.099701,307.082367 141.099701,307.082367 
z"/>
<path fill="#C8B2B5" opacity="1.000000" stroke="none" 
	d="
M164.156967,201.779236 
	C156.848801,201.603027 149.812790,201.265015 142.292603,200.851929 
	C141.808426,200.776855 141.875198,200.433670 141.899002,200.261383 
	C149.248001,200.023315 156.573181,199.957535 164.345490,199.853363 
	C164.671463,200.415802 164.550308,201.016632 164.156967,201.779236 
z"/>
<path fill="#D1C4C7" opacity="1.000000" stroke="none" 
	d="
M137.017181,321.028870 
	C136.631317,321.172119 136.214279,321.276733 135.797241,321.381348 
	C136.029800,321.248260 136.262375,321.115204 136.707016,320.949463 
	C136.919083,320.916748 136.985992,320.990173 137.017181,321.028870 
z"/>
<path fill="#C8B2B5" opacity="1.000000" stroke="none" 
	d="
M130.825226,312.386902 
	C131.041428,312.344788 131.164627,312.399811 131.287842,312.454803 
	C131.102646,312.464539 130.917435,312.474274 130.825226,312.386902 
z"/>
<path fill="#C8B2B5" opacity="1.000000" stroke="none" 
	d="
M140.927292,306.909607 
	C141.023468,306.870789 141.174454,306.892120 141.212570,306.997925 
	C141.099701,307.082367 140.982101,306.969757 140.927292,306.909607 
z"/>
<path fill="#C8B2B5" opacity="1.000000" stroke="none" 
	d="
M134.011627,311.015259 
	C134.022446,311.028473 133.746765,311.425934 133.746765,311.425934 
	C133.746765,311.425934 133.744186,311.088531 133.859421,311.034576 
	C133.974655,310.980621 134.000824,311.002075 134.011627,311.015259 
z"/>
<path fill="#C8B2B5" opacity="1.000000" stroke="none" 
	d="
M140.010590,316.015381 
	C139.900696,316.338043 139.708694,316.593170 139.222351,316.898041 
	C138.996277,316.999146 138.960358,316.968750 138.960358,316.968750 
	C139.070465,316.651459 139.261444,316.394196 139.748535,316.084564 
	C139.963776,315.972107 139.996750,315.999237 140.010590,316.015381 
z"/>
<path fill="#C8B2B5" opacity="1.000000" stroke="none" 
	d="
M139.011749,317.016846 
	C138.926346,317.049164 138.825470,317.063782 138.842484,317.023560 
	C138.960358,316.968750 138.996277,316.999146 139.011749,317.016846 
z"/>
<path fill="#000000" opacity="1.000000" stroke="none" 
	d="
M366.983398,415.170349 
	C364.609375,416.603394 362.331604,417.662048 360.053802,418.720703 
	C359.573029,418.303558 359.092255,417.886444 358.611481,417.469330 
	C359.162750,414.768860 359.360382,411.904877 360.486145,409.470062 
	C360.813263,408.762634 364.468445,408.560089 365.392792,409.420685 
	C366.587616,410.533020 366.573334,412.944061 366.983398,415.170349 
z"/>
<path fill="#000000" opacity="1.000000" stroke="none" 
	d="
M362.698181,400.959564 
	C357.362213,399.786957 361.701477,395.936462 359.461395,393.970062 
	C359.911621,393.490906 360.361816,393.011749 360.812042,392.532593 
	C362.416260,393.435455 364.611237,393.956451 365.495605,395.324615 
	C367.090881,397.792450 366.138947,399.992310 362.698181,400.959564 
z"/>
<path fill="#4673A9" opacity="1.000000" stroke="none" 
	d="
M285.730621,211.167023 
	C286.480408,211.003204 286.903198,211.025375 287.643799,211.009796 
	C287.940369,216.838226 287.919189,222.704437 287.897919,228.982758 
	C269.878510,233.449478 252.505981,232.047424 236.173706,222.927261 
	C234.344696,221.905930 233.338455,219.503830 231.624603,218.156952 
	C229.990021,216.872345 227.966156,215.365677 226.049713,215.272919 
	C213.090744,214.645645 201.126968,218.508179 189.601562,224.045074 
	C187.360474,225.121704 185.091415,226.140121 182.472473,227.254944 
	C182.120819,221.168503 182.131943,215.012512 182.165924,208.381744 
	C189.186996,205.372528 196.056992,202.352448 203.224762,200.460312 
	C208.763931,198.998093 214.665161,198.555527 220.426071,198.393326 
	C225.280640,198.256638 229.705246,199.361526 234.270569,202.325363 
	C245.245026,209.450073 257.756927,213.266006 270.882843,213.842209 
	C275.677460,214.052689 280.560791,212.241791 285.730621,211.167023 
z"/>
<path fill="#8B5E67" opacity="1.000000" stroke="none" 
	d="
M178.616699,289.024048 
	C178.510544,289.908539 178.074402,290.880463 177.298462,291.928070 
	C177.401367,291.039673 177.844040,290.075592 178.616699,289.024048 
z"/>
<path fill="#E1D4D6" opacity="1.000000" stroke="none" 
	d="
M320.009094,168.291992 
	C320.024780,167.547760 320.074463,167.095215 320.036896,166.309433 
	C320.521576,165.954849 321.093536,165.933502 322.096130,165.940582 
	C322.352448,167.038513 322.178101,168.108017 322.001099,169.586853 
	C321.610352,169.948914 321.222260,169.901627 320.546082,169.795013 
	C320.186371,169.351669 320.114746,168.967651 320.009094,168.291992 
z"/>
<path fill="#9B767D" opacity="1.000000" stroke="none" 
	d="
M312.058319,177.317139 
	C312.166260,177.008621 312.340271,177.005692 312.775848,176.999466 
	C313.502533,177.331848 313.977051,177.656723 314.407837,178.031860 
	C314.431854,178.052795 313.976898,178.715591 313.942749,178.697906 
	C313.318573,178.374344 312.724701,177.992325 312.058319,177.317139 
z"/>
<path fill="#917075" opacity="1.000000" stroke="none" 
	d="
M312.989258,174.979370 
	C313.901550,174.648178 314.832733,174.342514 315.763916,174.036835 
	C315.809570,174.299805 315.855225,174.562775 315.900879,174.825745 
	C315.159821,174.894440 314.418793,174.963150 313.364075,175.042114 
	C313.050415,175.052383 313.008179,175.004898 312.989258,174.979370 
z"/>
<path fill="#E0D4D6" opacity="1.000000" stroke="none" 
	d="
M154.394257,170.722412 
	C153.823792,170.080124 153.548264,169.341232 153.150543,168.321716 
	C154.069016,167.975784 155.109680,167.910477 156.968384,167.793808 
	C155.895233,169.127258 155.292206,169.876526 154.394257,170.722412 
z"/>
<path fill="#8B5E67" opacity="1.000000" stroke="none" 
	d="
M147.526459,172.531158 
	C147.487640,172.551514 147.565292,172.510818 147.526459,172.531158 
z"/>
</svg>