<?xml version="1.0" standalone="no"?>
<!DOCTYPE svg PUBLIC "-//W3C//DTD SVG 20010904//EN"
 "http://www.w3.org/TR/2001/REC-SVG-20010904/DTD/svg10.dtd">
<svg version="1.0" xmlns="http://www.w3.org/2000/svg"
 width="439.000000pt" height="568.000000pt" viewBox="0 0 439.000000 568.000000"
 preserveAspectRatio="xMidYMid meet">
<metadata>
Created by potrace 1.16, written by Peter Selinger 2001-2019
</metadata>
<g transform="translate(0.000000,568.000000) scale(0.100000,-0.100000)"
fill="#000000" stroke="none">
<path d="M2015 3680 c-38 -10 -100 -32 -137 -48 l-68 -31 -1 -128 c-1 -70 -3
-158 -5 -195 -3 -52 -1 -68 9 -68 8 0 45 15 83 33 116 56 202 78 305 76 74 -1
91 -5 99 -19 8 -15 38 -32 142 -81 78 -37 298 -54 376 -28 18 6 40 8 49 5 13
-5 14 -1 9 25 -3 17 -6 105 -6 195 l0 163 -41 -14 c-61 -22 -190 -19 -279 6
-66 18 -187 71 -260 114 -35 21 -186 18 -275 -5z"/>
<path d="M1857 2736 c-13 -20 -15 -38 -10 -85 5 -53 4 -61 -11 -61 -14 0 -16
-25 -16 -250 l0 -249 33 5 c17 3 43 9 57 14 14 5 61 19 104 32 l79 23 -6 193
c-6 191 -15 238 -40 213 -7 -7 -18 1 -33 27 -13 20 -24 31 -24 25 0 -16 -20
-17 -20 -2 0 6 -9 22 -20 36 -11 14 -20 21 -20 14 0 -26 -16 -8 -36 40 l-20
51 -17 -26z"/>
<path d="M2783 2733 c-6 -16 -14 -38 -18 -50 -6 -23 -25 -32 -25 -13 0 23 -19
7 -30 -25 -11 -32 -30 -48 -30 -25 0 6 -4 10 -10 10 -5 0 -13 -18 -16 -40 -7
-45 -11 -48 -30 -23 -7 10 -16 14 -20 10 -12 -12 -22 -142 -23 -287 l-1 -126
48 -13 c26 -8 72 -21 102 -31 30 -10 71 -20 90 -23 l35 -5 -3 249 c-2 221 -4
249 -19 249 -14 0 -15 9 -10 63 5 49 2 67 -11 85 l-17 22 -12 -27z"/>
<path d="M893 1852 c-20 -3 -23 -10 -23 -47 0 -33 4 -44 18 -47 17 -5 18 -17
17 -124 -1 -115 -1 -119 -23 -122 -19 -3 -21 -9 -19 -45 2 -42 2 -42 44 -45
81 -6 282 15 308 32 24 16 25 15 31 -9 6 -24 9 -25 93 -25 48 0 90 2 92 4 3 3
3 23 1 45 -3 28 -9 41 -19 41 -8 0 -13 7 -11 18 3 14 14 17 58 17 44 0 55 -3
58 -17 3 -13 -3 -18 -21 -18 -21 0 -24 -5 -25 -45 l-2 -45 209 0 c127 0 212 4
216 10 3 5 3 25 -1 45 -4 25 -11 35 -25 35 -17 0 -19 8 -19 62 l0 62 73 -107
72 -107 65 3 65 2 3 168 2 167 30 0 30 0 0 -125 c0 -104 -2 -125 -15 -125 -11
0 -15 -12 -15 -45 l0 -46 113 3 112 3 1 42 c2 40 0 42 -30 45 -27 3 -31 7 -34
36 l-3 32 61 0 61 0 -3 43 -3 42 -57 3 -58 3 0 45 0 45 43 -3 c35 -2 43 -7 45
-25 3 -21 9 -23 58 -23 l55 0 -3 68 -3 67 -267 3 -268 2 0 -41 c0 -32 4 -42
20 -46 17 -5 20 -14 20 -61 0 -30 -3 -53 -6 -50 -3 4 -33 48 -67 100 l-62 93
-90 0 -89 0 1 -32 c2 -52 2 -53 18 -53 13 0 15 -20 15 -123 l0 -124 -35 -1
c-21 -1 -37 4 -39 11 -2 7 -15 50 -29 97 -14 47 -35 118 -47 158 l-22 73 -116
-3 -117 -3 3 -40 c2 -22 8 -43 14 -46 6 -4 4 -17 -6 -37 -9 -17 -16 -38 -16
-47 0 -17 -24 -102 -41 -142 -13 -34 -29 -28 -29 12 0 41 -18 85 -36 85 -24 0
-26 21 -5 41 15 14 21 32 21 63 0 52 -26 90 -73 105 -33 10 -234 20 -274 13z"/>
<path d="M2590 1811 c0 -25 6 -43 15 -49 14 -7 14 -13 -1 -58 -9 -27 -23 -64
-30 -82 -8 -18 -14 -39 -14 -47 0 -29 -24 -65 -42 -65 -16 0 -19 -6 -16 -42
l3 -43 45 -3 c25 -2 68 -1 95 3 l50 6 -3 39 c-3 31 -8 40 -23 40 -21 0 -23 8
-10 28 12 20 115 12 119 -10 2 -11 -5 -18 -20 -20 -18 -2 -24 -10 -26 -39 -4
-47 1 -49 208 -49 207 0 210 1 210 51 0 32 -3 39 -20 39 -18 0 -20 7 -20 62 0
68 1 68 54 -12 19 -30 48 -72 63 -93 l27 -38 66 3 65 3 3 163 2 162 30 0 30 0
0 -125 c0 -100 -3 -125 -14 -125 -16 0 -32 -68 -18 -82 5 -5 72 -5 171 0 148
9 165 12 187 33 47 44 43 138 -7 168 -29 18 -29 18 -10 35 55 50 36 137 -35
169 -34 15 -67 17 -259 15 l-220 -3 -1 -33 c-1 -20 5 -36 12 -39 16 -6 27 -56
22 -103 -3 -33 -5 -31 -73 73 l-69 107 -88 0 -88 0 0 -40 c0 -33 3 -40 20 -40
19 0 20 -7 20 -129 l0 -129 -34 0 c-33 0 -33 1 -61 87 -15 47 -40 122 -54 166
l-27 80 -117 3 -117 3 0 -40z"/>
</g>
</svg>
